<?xml version="1.0" encoding="UTF-8"?>
<svg version="1.1" xmlns="http://www.w3.org/2000/svg" width="200" height="130">
<path d="M0 0 C1.45212891 -0.01063477 1.45212891 -0.01063477 2.93359375 -0.02148438 C12.14739565 0.0589045 20.09620107 1.83950569 27.5 7.4375 C28.49 8.0975 29.48 8.7575 30.5 9.4375 C31.64664122 11.75981133 32.68441151 14.05523761 33.6875 16.4375 C36.73331243 23.32883574 40.53322474 28.75075102 45.5 34.4375 C49.79153585 39.56350115 51.63592456 43.79726809 52.5 50.4375 C52.68046875 51.62730469 52.8609375 52.81710938 53.046875 54.04296875 C54.29176262 63.90809289 53.33040405 73.07637705 47.5 81.4375 C43.46264371 86.0562356 38.81180012 89.99324401 34.15429688 93.96582031 C32.15943667 95.74046868 30.47698559 97.665273 28.8125 99.75 C22.98945656 106.7466801 14.65614562 112.4461947 6.5 116.4375 C5.51 116.4375 4.52 116.4375 3.5 116.4375 C3.5 117.0975 3.5 117.7575 3.5 118.4375 C-6.85257272 121.50475427 -24.14217002 122.18076102 -34.09375 117.828125 C-37.19688057 115.89954385 -39.82779793 113.92015141 -42.5 111.4375 C-43.6868323 110.51996901 -44.87419666 109.60312504 -46.0625 108.6875 C-47.53481526 107.32843976 -48.98159393 105.93985294 -50.375 104.5 C-53.00454195 101.94779752 -55.89845264 99.91231256 -58.890625 97.8046875 C-59.42171875 97.35351562 -59.9528125 96.90234375 -60.5 96.4375 C-60.5 95.7775 -60.5 95.1175 -60.5 94.4375 C-61.49 94.1075 -62.48 93.7775 -63.5 93.4375 C-69.47566785 84.20237695 -71.4133989 74.28487337 -70.13671875 63.31640625 C-67.96651481 53.29086291 -63.60031217 43.21892675 -55.234375 37 C-53.03141658 35.01535278 -51.76796342 32.85689582 -50.25 30.3125 C-42.8887489 18.31578258 -34.25636785 10.33118257 -21.5 4.4375 C-20.75572754 4.077771 -20.01145508 3.71804199 -19.24462891 3.34741211 C-12.72412167 0.42761777 -7.09394748 -0.14641303 0 0 Z " fill="#D5A897" transform="translate(109.5,3.5625)"/>
<path d="M0 0 C1.67419438 0.9873454 3.34051852 1.98812105 5 3 C6.47536155 3.14863717 7.95606028 3.24830428 9.4375 3.3125 C14.79200959 3.71342002 16.54802996 6.05489138 20 10 C20.99 10.33 21.98 10.66 23 11 C27 16.37142857 27 16.37142857 27 19 C28.485 19.495 28.485 19.495 30 20 C33 24.33333333 33 24.33333333 33 27 C31.68 27.66 30.36 28.32 29 29 C28.01 28.34 27.02 27.68 26 27 C23.35367713 27.3121764 23.35367713 27.3121764 21 28 C20.505 26.02 20.505 26.02 20 24 C19.01 24 18.02 24 17 24 C16.34 28.29 15.68 32.58 15 37 C16.32 37 17.64 37 19 37 C19 36.34 19 35.68 19 35 C20.32 35.66 21.64 36.32 23 37 C23 37.66 23 38.32 23 39 C24.98 39.495 24.98 39.495 27 40 C26.01 40.66 25.02 41.32 24 42 C25.98 42.33 27.96 42.66 30 43 C28.515 43.495 28.515 43.495 27 44 C27 44.99 27 45.98 27 47 C24.69 47 22.38 47 20 47 C20 48.32 20 49.64 20 51 C21.32 50.67 22.64 50.34 24 50 C24 50.99 24 51.98 24 53 C24.99 52.67 25.98 52.34 27 52 C27.66 52.33 28.32 52.66 29 53 C29 53.99 29 54.98 29 56 C29.78375 55.814375 30.5675 55.62875 31.375 55.4375 C34 55 34 55 36 56 C36 57.65 36 59.3 36 61 C32 62.33333333 28 63.66666667 24 65 C24 65.66 24 66.32 24 67 C23.01 67.495 23.01 67.495 22 68 C21.505 69.485 21.505 69.485 21 71 C21.50789063 70.74605469 22.01578125 70.49210937 22.5390625 70.23046875 C26.69270833 68.15364583 30.84635417 66.07682292 35 64 C34.42365861 68.75481646 32.44931479 71.97048212 30 76 C27.58063683 76.16249454 25.17218141 76.28097817 22.75 76.375 C22.06808594 76.42527344 21.38617188 76.47554688 20.68359375 76.52734375 C18.671875 76.5859375 18.671875 76.5859375 15 76 C12.90625 73.2109375 12.90625 73.2109375 11 70 C0.71659533 62.87234915 -9.54928825 59.85623383 -22 61 C-24.48435031 61.66297912 -26.79049027 62.44852944 -29.16015625 63.44140625 C-31 64 -31 64 -34 63 C-34 62.01 -34 61.02 -34 60 C-33.01 59.505 -33.01 59.505 -32 59 C-31.59270772 56.67843403 -31.25561323 54.3431213 -31 52 C-32.98 52 -34.96 52 -37 52 C-37 51.34 -37 50.68 -37 50 C-36.401875 49.9175 -35.80375 49.835 -35.1875 49.75 C-32.4033704 48.79544128 -31.56688858 47.42867729 -30 45 C-29.67 46.32 -29.34 47.64 -29 49 C-26.64214682 48.10664203 -26.64214682 48.10664203 -25.875 44.9375 C-25.58625 43.968125 -25.2975 42.99875 -25 42 C-26.58323688 41.972807 -28.16661062 41.95351694 -29.75 41.9375 C-30.63171875 41.92589844 -31.5134375 41.91429687 -32.421875 41.90234375 C-34.7818838 41.99173802 -36.74498524 42.33087179 -39 43 C-39.33 45.31 -39.66 47.62 -40 50 C-40.33 50 -40.66 50 -41 50 C-41 47.69 -41 45.38 -41 43 C-44.73639216 44.24546405 -45.18756513 45.63404953 -47 49 C-47.99 48.67 -48.98 48.34 -50 48 C-50 46.68 -50 45.36 -50 44 C-50.66 44 -51.32 44 -52 44 C-52 46.64 -52 49.28 -52 52 C-49.03 51.34 -46.06 50.68 -43 50 C-43 50.66 -43 51.32 -43 52 C-43.63808594 52.04898438 -44.27617188 52.09796875 -44.93359375 52.1484375 C-45.75988281 52.22320312 -46.58617187 52.29796875 -47.4375 52.375 C-48.67306641 52.47941406 -48.67306641 52.47941406 -49.93359375 52.5859375 C-50.95646484 52.79089844 -50.95646484 52.79089844 -52 53 C-53.24546405 55.49092811 -52.7767578 56.41080733 -52 59 C-51.34 57.68 -50.68 56.36 -50 55 C-46 61.75 -46 61.75 -46 64 C-44.68 64 -43.36 64 -42 64 C-42 62.68 -42 61.36 -42 60 C-41.34 60 -40.68 60 -40 60 C-37.62176166 64.40414508 -37.62176166 64.40414508 -37 67 C-38.3125 70.4375 -38.3125 70.4375 -40 73 C-40.66 73 -41.32 73 -42 73 C-42.556875 72.278125 -43.11375 71.55625 -43.6875 70.8125 C-45.71591199 68.34551244 -46.83566973 67.39622277 -49.4375 65.8125 C-54.05132465 62.71010067 -56.04929863 58.07901508 -58 53 C-58 52.34 -58 51.68 -58 51 C-58.99 50.67 -59.98 50.34 -61 50 C-61.55719091 38.6704515 -61.4135712 27.9884451 -53.875 18.75 C-51 16 -51 16 -49 16 C-48.67 15.01 -48.34 14.02 -48 13 C-47.34 13 -46.68 13 -46 13 C-46 12.34 -46 11.68 -46 11 C-41.78454948 7.73642541 -37.11931979 6.94802218 -32 6 C-32 5.34 -32 4.68 -32 4 C-27.74480426 2.58160142 -23.43035848 2.64858351 -18.98046875 2.48242188 C-12.22048496 2.14882863 -6.84102706 -0.95521528 0 0 Z " fill="#B17559" transform="translate(110,21)"/>
<path d="M0 0 C2 1 4 2 6 3 C6.625 5.5625 6.625 5.5625 7 8 C6.34 8.33 5.68 8.66 5 9 C4.505 7.02 4.505 7.02 4 5 C3.01 5 2.02 5 1 5 C0.34 9.29 -0.32 13.58 -1 18 C0.32 18 1.64 18 3 18 C3 17.34 3 16.68 3 16 C4.32 16.66 5.64 17.32 7 18 C7 18.66 7 19.32 7 20 C8.32 20.33 9.64 20.66 11 21 C10.01 21.66 9.02 22.32 8 23 C9.98 23.33 11.96 23.66 14 24 C12.515 24.495 12.515 24.495 11 25 C11 25.99 11 26.98 11 28 C8.69 28 6.38 28 4 28 C4 29.32 4 30.64 4 32 C5.32 31.67 6.64 31.34 8 31 C8 31.99 8 32.98 8 34 C8.99 33.67 9.98 33.34 11 33 C11.66 33.33 12.32 33.66 13 34 C13 34.99 13 35.98 13 37 C13.78375 36.814375 14.5675 36.62875 15.375 36.4375 C18 36 18 36 20 37 C20 38.65 20 40.3 20 42 C16 43.33333333 12 44.66666667 8 46 C8 46.66 8 47.32 8 48 C7.01 48.495 7.01 48.495 6 49 C5.67 49.99 5.34 50.98 5 52 C5.50789063 51.74605469 6.01578125 51.49210937 6.5390625 51.23046875 C10.69270833 49.15364583 14.84635417 47.07682292 19 45 C18.42365861 49.75481646 16.44931479 52.97048212 14 57 C11.58063683 57.16249454 9.17218141 57.28097817 6.75 57.375 C6.06808594 57.42527344 5.38617188 57.47554687 4.68359375 57.52734375 C2.671875 57.5859375 2.671875 57.5859375 -1 57 C-3.09375 54.2109375 -3.09375 54.2109375 -5 51 C-15.28340467 43.87234915 -25.54928825 40.85623383 -38 42 C-40.48435031 42.66297912 -42.79049027 43.44852944 -45.16015625 44.44140625 C-47 45 -47 45 -50 44 C-50 43.01 -50 42.02 -50 41 C-49.01 40.505 -49.01 40.505 -48 40 C-47.59270772 37.67843403 -47.25561323 35.3431213 -47 33 C-48.98 33 -50.96 33 -53 33 C-53 32.34 -53 31.68 -53 31 C-52.1028125 30.87625 -52.1028125 30.87625 -51.1875 30.75 C-48.4033704 29.79544128 -47.56688858 28.42867729 -46 26 C-45.67 27.32 -45.34 28.64 -45 30 C-42.64214682 29.10664203 -42.64214682 29.10664203 -41.875 25.9375 C-41.58625 24.968125 -41.2975 23.99875 -41 23 C-41.66 22.67 -42.32 22.34 -43 22 C-39.04 21.505 -39.04 21.505 -35 21 C-34.01 17.37 -33.02 13.74 -32 10 C-31.34 10 -30.68 10 -30 10 C-29.67 11.65 -29.34 13.3 -29 15 C-28.01 14.67 -27.02 14.34 -26 14 C-25.34 10.7 -24.68 7.4 -24 4 C-23.67 4 -23.34 4 -23 4 C-22.87625 4.969375 -22.7525 5.93875 -22.625 6.9375 C-22.41875 7.948125 -22.2125 8.95875 -22 10 C-21.34 10.33 -20.68 10.66 -20 11 C-20.99 14.3 -21.98 17.6 -23 21 C-24.2375 20.938125 -25.475 20.87625 -26.75 20.8125 C-29.60188889 20.81755654 -30.89555867 20.94777933 -33.5 22.25 C-35.43386092 24.12202338 -35.43386092 24.12202338 -35 28 C-34.154375 27.814375 -33.30875 27.62875 -32.4375 27.4375 C-29 27 -29 27 -25.5625 27.5 C-21.77943666 28.03095626 -18.7394028 27.68682909 -15 27 C-15 28.32 -15 29.64 -15 31 C-14.45472656 30.83242187 -13.90945312 30.66484375 -13.34765625 30.4921875 C-7.31981151 28.86415422 -2.94368771 29.17333475 3 31 C3 29.68 3 28.36 3 27 C1.35 26.67 -0.3 26.34 -2 26 C-2 25.01 -2 24.02 -2 23 C-3.58323688 22.972807 -5.16661062 22.95351694 -6.75 22.9375 C-7.63171875 22.92589844 -8.5134375 22.91429688 -9.421875 22.90234375 C-11.96645215 22.90468583 -11.96645215 22.90468583 -14.21875 23.5859375 C-14.8065625 23.72257812 -15.394375 23.85921875 -16 24 C-17.75 22.6875 -17.75 22.6875 -19 21 C-19 20.34 -19 19.68 -19 19 C-15.04 18.505 -15.04 18.505 -11 18 C-11 16.68 -11 15.36 -11 14 C-10.34 14 -9.68 14 -9 14 C-8.67 12.68 -8.34 11.36 -8 10 C-8 12.64 -8 15.28 -8 18 C-6.68 17.67 -5.36 17.34 -4 17 C-3.83179449 15.06263299 -3.66548905 13.12510094 -3.5 11.1875 C-3.36078125 9.56908203 -3.36078125 9.56908203 -3.21875 7.91796875 C-2.96262162 4.98909189 -2.96262162 4.98909189 -3 2 C-2.01 2 -1.02 2 0 2 C0 1.34 0 0.68 0 0 Z " fill="#AE744F" transform="translate(126,40)"/>
<path d="M0 0 C2.94690771 1.8828828 4.90331997 3.17456507 6.03515625 6.55078125 C6.60444296 10.67099381 6.62276728 12.92776905 4.78515625 16.75 C-1.46762679 22.93369151 -11.52046975 24.79850734 -19.96484375 25 C-25.65294242 24.7770622 -30.46876962 23.82993641 -35.65234375 21.5 C-36.74546875 21.025625 -37.83859375 20.55125 -38.96484375 20.0625 C-42.89147356 17.77957569 -45.20375007 15.84578105 -46.65234375 11.5 C-47.16228237 7.03594714 -47.26968995 3.59222789 -45.02734375 -0.375 C-42.35491724 -2.76611846 -39.95635632 -4.11231472 -36.65234375 -5.5 C-35.78609375 -5.891875 -34.91984375 -6.28375 -34.02734375 -6.6875 C-21.4369357 -9.71852416 -10.95141451 -6.05085348 0 0 Z " fill="#FCF671" transform="translate(118.65234375,88.5)"/>
<path d="M0 0 C0 0.99 0 1.98 0 3 C-0.66 3.66 -1.32 4.32 -2 5 C-6.01928666 13.61066157 -7.29208992 22.60615709 -6 32 C-4.65098285 33.67195111 -4.65098285 33.67195111 -3 35 C-2.2506492 36.56433818 -1.54566235 38.15034611 -0.875 39.75 C1.53387169 44.81158623 4.50726593 47.4262537 9.109375 50.52734375 C11 52 11 52 12 55 C12.66 55 13.32 55 14 55 C15.19351312 51.65670531 15.19351312 51.65670531 16 48 C15.34 47.01 14.68 46.02 14 45 C14 44.01 14 43.02 14 42 C13.34 42 12.68 42 12 42 C12 43.32 12 44.64 12 46 C10.68 46 9.36 46 8 46 C5.75 43 5.75 43 4 40 C3.34 40.66 2.68 41.32 2 42 C1.87625 41.360625 1.7525 40.72125 1.625 40.0625 C1.41875 39.381875 1.2125 38.70125 1 38 C0.34 37.67 -0.32 37.34 -1 37 C2.03525486 34.97649676 3.19426202 34.67875982 6.6875 34.375 C7.49574219 34.30023438 8.30398437 34.22546875 9.13671875 34.1484375 C9.75160156 34.09945312 10.36648437 34.05046875 11 34 C10.505 33.505 10.505 33.505 10 33 C7.30917128 33.17635452 4.67148554 33.61835921 2 34 C2 31.36 2 28.72 2 26 C2.66 26 3.32 26 4 26 C4 27.32 4 28.64 4 30 C4.99 30 5.98 30 7 30 C7.495 29.175 7.99 28.35 8.5 27.5 C8.995 26.675 9.49 25.85 10 25 C10.99 25 11.98 25 13 25 C13.33 26.32 13.66 27.64 14 29 C14.12375 28.071875 14.12375 28.071875 14.25 27.125 C15 25 15 25 16.71875 23.84375 C19.49738051 22.81603735 21.32697439 22.99039137 24.25 23.375 C25.14203125 23.48585938 26.0340625 23.59671875 26.953125 23.7109375 C27.62859375 23.80632813 28.3040625 23.90171875 29 24 C28.34 26.31 27.68 28.62 27 31 C26.34 31 25.68 31 25 31 C24.67 31.66 24.34 32.32 24 33 C23.505 31.02 23.505 31.02 23 29 C22.34 29.99 21.68 30.98 21 32 C19.68 32 18.36 32 17 32 C17 32.66 17 33.32 17 34 C18.98 34 20.96 34 23 34 C23 36.31 23 38.62 23 41 C22.01 41.33 21.02 41.66 20 42 C20 42.66 20 43.32 20 44 C20.99 44.495 20.99 44.495 22 45 C22 45.66 22 46.32 22 47 C21.175 47.639375 20.35 48.27875 19.5 48.9375 C15.8541543 53.40366098 16.56221001 57.44493144 17 63 C13.74968216 62.86076462 10.49983939 62.71245815 7.25 62.5625 C5.86941406 62.50352539 5.86941406 62.50352539 4.4609375 62.44335938 C3.57148437 62.40146484 2.68203125 62.35957031 1.765625 62.31640625 C0.54020996 62.26141968 0.54020996 62.26141968 -0.70996094 62.20532227 C-2.9034423 62.00865725 -4.88396413 61.59699406 -7 61 C-7 60.34 -7 59.68 -7 59 C-7.99 58.67 -8.98 58.34 -10 58 C-15.97566785 48.76487695 -17.9133989 38.84737337 -16.63671875 27.87890625 C-14.25561057 16.87906293 -9.26256897 6.61612069 0 0 Z " fill="#AE794E" transform="translate(56,39)"/>
<path d="M0 0 C1.50433594 0.01353516 1.50433594 0.01353516 3.0390625 0.02734375 C3.80992187 0.03894531 4.58078125 0.05054687 5.375 0.0625 C5.375 1.0525 5.375 2.0425 5.375 3.0625 C6.035 3.0625 6.695 3.0625 7.375 3.0625 C6.5533145 9.14297273 0.90451065 12.49819958 -3.625 16.0625 C-14.99514315 24.0625 -14.99514315 24.0625 -19.625 24.0625 C-19.625 24.7225 -19.625 25.3825 -19.625 26.0625 C-29.97757272 29.12975427 -47.26717002 29.80576102 -57.21875 25.453125 C-60.32188057 23.52454385 -62.95279793 21.54515141 -65.625 19.0625 C-66.8118323 18.14496901 -67.99919666 17.22812504 -69.1875 16.3125 C-71.3909961 14.2785036 -73.50503354 12.18246646 -75.625 10.0625 C-77.59915406 8.36199106 -79.6080919 6.71269754 -81.625 5.0625 C-78.12441967 3.31220983 -74.21767627 3.99576201 -70.375 4.125 C-69.52808594 4.12693359 -68.68117188 4.12886719 -67.80859375 4.13085938 C-63.27334286 4.29661116 -60.5416416 4.61196161 -57.3359375 7.9765625 C-56.87509766 8.51643799 -56.41425781 9.05631348 -55.93945312 9.61254883 C-54.07743271 11.66651228 -52.08405264 12.45559569 -49.5 13.375 C-48.67242187 13.68050781 -47.84484375 13.98601562 -46.9921875 14.30078125 C-36.12164275 17.79872882 -26.13845174 16.44778295 -15.5859375 12.64453125 C-12.27141537 10.87357945 -10.67739329 9.18506979 -8.625 6.0625 C-8.24831656 4.40509285 -7.90442455 2.73904729 -7.625 1.0625 C-4.98041621 -0.25979189 -2.94738699 -0.03427194 0 0 Z " fill="#74FAF8" transform="translate(132.625,95.9375)"/>
<path d="M0 0 C3 1.5 3 1.5 6 3 C6.625 5.5625 6.625 5.5625 7 8 C6.01 8.495 6.01 8.495 5 9 C4.67 7.68 4.34 6.36 4 5 C3.01 5 2.02 5 1 5 C0.34 9.29 -0.32 13.58 -1 18 C0.32 18 1.64 18 3 18 C3 17.34 3 16.68 3 16 C4.32 16.66 5.64 17.32 7 18 C7 18.66 7 19.32 7 20 C8.32 20.33 9.64 20.66 11 21 C10.01 21.66 9.02 22.32 8 23 C9.98 23.33 11.96 23.66 14 24 C13.01 24.33 12.02 24.66 11 25 C11 25.99 11 26.98 11 28 C8.69 28 6.38 28 4 28 C4 29.32 4 30.64 4 32 C5.32 31.67 6.64 31.34 8 31 C8 31.99 8 32.98 8 34 C9.485 33.505 9.485 33.505 11 33 C11.66 33.33 12.32 33.66 13 34 C13 34.99 13 35.98 13 37 C13.78375 36.814375 14.5675 36.62875 15.375 36.4375 C18 36 18 36 20 37 C20 38.65 20 40.3 20 42 C16 43.33333333 12 44.66666667 8 46 C8 46.66 8 47.32 8 48 C7.01 48.495 7.01 48.495 6 49 C5.67 49.99 5.34 50.98 5 52 C5.76183594 51.61908203 5.76183594 51.61908203 6.5390625 51.23046875 C10.69270833 49.15364583 14.84635417 47.07682292 19 45 C18.42365861 49.75481646 16.44931479 52.97048212 14 57 C11.58063683 57.16249454 9.17218141 57.28097817 6.75 57.375 C6.06808594 57.42527344 5.38617188 57.47554687 4.68359375 57.52734375 C2.671875 57.5859375 2.671875 57.5859375 -1 57 C-3.296875 54.1015625 -3.296875 54.1015625 -5 51 C-5.99 50.34 -6.98 49.68 -8 49 C-8 48.34 -8 47.68 -8 47 C-7.278125 46.79375 -6.55625 46.5875 -5.8125 46.375 C-1.20868025 44.12424368 1.21125833 40.18311251 4 36 C4.66 36.33 5.32 36.66 6 37 C6 36.01 6 35.02 6 34 C5.443125 34.20625 4.88625 34.4125 4.3125 34.625 C2 35 2 35 -0.125 34.125 C-4.30870701 32.48789726 -8.54591969 32.32865059 -13 32 C-13 31.34 -13 30.68 -13 30 C-7.15659442 28.75672222 -2.73303505 29.42699038 3 31 C3 29.68 3 28.36 3 27 C1.35 26.67 -0.3 26.34 -2 26 C-2 25.01 -2 24.02 -2 23 C-3.58323688 22.972807 -5.16661062 22.95351694 -6.75 22.9375 C-7.63171875 22.92589844 -8.5134375 22.91429688 -9.421875 22.90234375 C-11.96645215 22.90468583 -11.96645215 22.90468583 -14.21875 23.5859375 C-14.8065625 23.72257812 -15.394375 23.85921875 -16 24 C-17.75 22.6875 -17.75 22.6875 -19 21 C-19 20.34 -19 19.68 -19 19 C-15.04 18.505 -15.04 18.505 -11 18 C-11 16.68 -11 15.36 -11 14 C-10.34 14 -9.68 14 -9 14 C-8.67 12.68 -8.34 11.36 -8 10 C-8 12.64 -8 15.28 -8 18 C-6.68 17.67 -5.36 17.34 -4 17 C-3.83179449 15.06263299 -3.66548905 13.12510094 -3.5 11.1875 C-3.4071875 10.10855469 -3.314375 9.02960937 -3.21875 7.91796875 C-2.96262162 4.98909189 -2.96262162 4.98909189 -3 2 C-2.01 2 -1.02 2 0 2 C0 1.34 0 0.68 0 0 Z " fill="#AE7351" transform="translate(126,40)"/>
<path d="M0 0 C0.66 0.33 1.32 0.66 2 1 C3.99960012 1.039992 6.00047242 1.04346799 8 1 C7.67 1.66 7.34 2.32 7 3 C5.68 3 4.36 3 3 3 C2.93941406 3.60585938 2.87882812 4.21171875 2.81640625 4.8359375 C2.2109375 10.890625 1.60546875 16.9453125 1 23 C2.62752231 22.74476126 4.25203196 22.47025506 5.875 22.1875 C6.77992187 22.03667969 7.68484375 21.88585937 8.6171875 21.73046875 C11.34412478 21.16948699 11.34412478 21.16948699 13 18 C13.66386719 18.09539063 14.32773438 18.19078125 15.01171875 18.2890625 C21.71645525 19.20315322 21.71645525 19.20315322 28 17 C28 17.66 28 18.32 28 19 C23.61538462 22 23.61538462 22 21 22 C21.66 23.32 22.32 24.64 23 26 C21.9275 25.979375 20.855 25.95875 19.75 25.9375 C16.85209576 25.9857984 14.71387859 26.13155885 12 27 C11.67 29.31 11.34 31.62 11 34 C10.67 34 10.34 34 10 34 C10 31.69 10 29.38 10 27 C6.26360784 28.24546405 5.81243487 29.63404953 4 33 C3.01 32.67 2.02 32.34 1 32 C1 30.68 1 29.36 1 28 C0.34 28 -0.32 28 -1 28 C-1 30.64 -1 33.28 -1 36 C1.97 35.34 4.94 34.68 8 34 C8 34.66 8 35.32 8 36 C7.36191406 36.04898438 6.72382812 36.09796875 6.06640625 36.1484375 C5.24011719 36.22320312 4.41382813 36.29796875 3.5625 36.375 C2.32693359 36.47941406 2.32693359 36.47941406 1.06640625 36.5859375 C0.04353516 36.79089844 0.04353516 36.79089844 -1 37 C-2.24546405 39.49092811 -1.7767578 40.41080733 -1 43 C-0.34 41.68 0.32 40.36 1 39 C5 45.75 5 45.75 5 48 C6.32 48 7.64 48 9 48 C9 46.68 9 45.36 9 44 C9.66 44 10.32 44 11 44 C13.37823834 48.40414508 13.37823834 48.40414508 14 51 C12.6875 54.4375 12.6875 54.4375 11 57 C10.34 57 9.68 57 9 57 C8.443125 56.278125 7.88625 55.55625 7.3125 54.8125 C5.28408801 52.34551244 4.16433027 51.39622277 1.5625 49.8125 C-3.05132465 46.71010067 -5.04929863 42.07901508 -7 37 C-7 36.34 -7 35.68 -7 35 C-7.99 34.67 -8.98 34.34 -10 34 C-10.55774245 22.65923677 -10.46626194 11.89249045 -2.75 2.75 C-1.38875 1.38875 -1.38875 1.38875 0 0 Z " fill="#B0765A" transform="translate(59,37)"/>
<path d="M0 0 C0.99 0.33 1.98 0.66 3 1 C3 2.65 3 4.3 3 6 C3.66 6 4.32 6 5 6 C5 4.68 5 3.36 5 2 C8.3 2 11.6 2 15 2 C15.99 3.98 16.98 5.96 18 8 C18.6496875 6.7625 18.6496875 6.7625 19.3125 5.5 C19.869375 4.675 20.42625 3.85 21 3 C21.99 3 22.98 3 24 3 C24.25176316 7.0066308 23.57894333 9.59482602 21.8125 13.1875 C21.40644531 14.04730469 21.00039062 14.90710938 20.58203125 15.79296875 C18.67176971 18.45790152 17.09410533 19.06916831 14 20 C14 20.66 14 21.32 14 22 C14.99 22.33 15.98 22.66 17 23 C17 23.66 17 24.32 17 25 C17.55171875 24.66226563 18.1034375 24.32453125 18.671875 23.9765625 C21.50305405 22.78898739 23.22704656 22.97724297 26.25 23.375 C27.14203125 23.48585938 28.0340625 23.59671875 28.953125 23.7109375 C29.62859375 23.80632813 30.3040625 23.90171875 31 24 C31 24.99 31 25.98 31 27 C31.99 26.67 32.98 26.34 34 26 C34 26.66 34 27.32 34 28 C34.66 28 35.32 28 36 28 C36 29.32 36 30.64 36 32 C34.93072266 31.87431641 34.93072266 31.87431641 33.83984375 31.74609375 C28.30980427 31.15810839 23.45971529 30.90805694 18 32 C17.67 31.01 17.34 30.02 17 29 C16.175 29.185625 15.35 29.37125 14.5 29.5625 C11.58904744 29.92636907 9.75508388 29.92237026 6.9375 29.5 C3.48017099 29.06097409 1.30027578 29.07179744 -2 30 C-2.33 28.35 -2.66 26.7 -3 25 C0.85623679 21.02325581 0.85623679 21.02325581 4.11328125 20.95703125 C6.08863015 21.2201772 8.04718291 21.60281686 10 22 C10.16733157 20.5209084 10.33384686 19.04172444 10.5 17.5625 C10.5928125 16.73878906 10.685625 15.91507813 10.78125 15.06640625 C11.1213844 11.85335092 10.238871 10.01974807 9 7 C8.9175 8.27875 8.835 9.5575 8.75 10.875 C8.48828125 13.0859375 8.48828125 13.0859375 8 15 C5.9375 16.5 5.9375 16.5 4 17 C3 16 3 16 2.9375 13.4375 C2.958125 12.633125 2.97875 11.82875 3 11 C2.34 11 1.68 11 1 11 C0.67 12.65 0.34 14.3 0 16 C-0.99 16 -1.98 16 -3 16 C-3.21663944 10.58401402 -3.16169806 6.08634837 -1 1 C-0.67 0.67 -0.34 0.34 0 0 Z " fill="#AF7C64" transform="translate(93,39)"/>
<path d="M0 0 C2 0.25 2 0.25 4 1 C4.33 1.99 4.66 2.98 5 4 C5.5775 3.79375 6.155 3.5875 6.75 3.375 C9.55946042 2.9067566 10.5095044 3.7547522 13 5 C15.09821215 4.60061233 15.09821215 4.60061233 17 4 C23.43084677 15.42623667 21.61914858 29.45159849 20 42 C19.34 42.061875 18.68 42.12375 18 42.1875 C14.41485883 43.15847573 11.90753597 44.85338483 8.8671875 46.94140625 C7 48 7 48 4 48 C4.33 46.68 4.66 45.36 5 44 C5.66 44 6.32 44 7 44 C7 43.34 7 42.68 7 42 C7.969375 41.525625 8.93875 41.05125 9.9375 40.5625 C12.80477437 39.29806053 12.80477437 39.29806053 14 38 C15.66617115 37.95936168 17.33388095 37.957279 19 38 C18.34 36.02 17.68 34.04 17 32 C14.525 32.495 14.525 32.495 12 33 C12 32.01 12 31.02 12 30 C10.35 30 8.7 30 7 30 C7 29.01 7 28.02 7 27 C5.68 27.33 4.36 27.66 3 28 C3 26.68 3 25.36 3 24 C5.31 24 7.62 24 10 24 C10 23.01 10 22.02 10 21 C8.68 20.34 7.36 19.68 6 19 C6.66 18.34 7.32 17.68 8 17 C6.02 15.35 4.04 13.7 2 12 C2 12.66 2 13.32 2 14 C0.68 14 -0.64 14 -2 14 C-1.85970581 11.8537974 -1.71261836 9.70803782 -1.5625 7.5625 C-1.48128906 6.36753906 -1.40007812 5.17257813 -1.31640625 3.94140625 C-1 1 -1 1 0 0 Z " fill="#AD775D" transform="translate(127,44)"/>
<path d="M0 0 C0 0.99 0 1.98 0 3 C-0.66 3.66 -1.32 4.32 -2 5 C-6.01928666 13.61066157 -7.29208992 22.60615709 -6 32 C-4.64950672 33.74151709 -4.64950672 33.74151709 -3 35 C0 41.22222222 0 41.22222222 0 45 C-1.485 45.495 -1.485 45.495 -3 46 C-2.34 46.433125 -1.68 46.86625 -1 47.3125 C-0.34 47.869375 0.32 48.42625 1 49 C1 49.99 1 50.98 1 52 C-3.05281712 50.77472971 -6.44360764 49.30119506 -10 47 C-9.72285156 47.67546875 -9.44570313 48.3509375 -9.16015625 49.046875 C-8.79792969 49.93890625 -8.43570313 50.8309375 -8.0625 51.75 C-7.70285156 52.63171875 -7.34320313 53.5134375 -6.97265625 54.421875 C-6.14643424 56.61186104 -5.50630057 58.71898271 -5 61 C-5.66 61 -6.32 61 -7 61 C-7 60.34 -7 59.68 -7 59 C-7.99 58.67 -8.98 58.34 -10 58 C-15.97566785 48.76487695 -17.9133989 38.84737337 -16.63671875 27.87890625 C-14.25561057 16.87906293 -9.26256897 6.61612069 0 0 Z " fill="#D7B1A1" transform="translate(56,39)"/>
<path d="M0 0 C3.37668083 -0.0062981 6.74913972 0.05355322 10.125 0.125 C11.07632813 0.12242188 12.02765625 0.11984375 13.0078125 0.1171875 C20.95892818 0.33805182 20.95892818 0.33805182 24.34375 3.90625 C24.79379395 4.44652832 25.24383789 4.98680664 25.70751953 5.54345703 C27.60135065 7.67768379 29.71921546 8.44188651 32.375 9.375 C33.68597656 9.85066406 33.68597656 9.85066406 35.0234375 10.3359375 C35.67570312 10.55507812 36.32796875 10.77421875 37 11 C37 11.33 37 11.66 37 12 C31.54294724 11.56343578 28.3305511 10.34633494 24 7 C23.55527344 6.47535156 23.11054687 5.95070313 22.65234375 5.41015625 C20.40834526 3.49506534 18.72437129 3.50158255 15.8125 3.3125 C14.91144531 3.24675781 14.01039062 3.18101563 13.08203125 3.11328125 C12.39496094 3.07589844 11.70789062 3.03851563 11 3 C13.71604715 5.87420123 13.71604715 5.87420123 17 8 C17 8.99 17 9.98 17 11 C17.61875 11.144375 18.2375 11.28875 18.875 11.4375 C21 12 21 12 23 13 C23.33 13.99 23.66 14.98 24 16 C28.34687784 18.74221751 31.74161838 19.38369184 36.83203125 19.3984375 C38.12560547 19.40230469 39.41917969 19.40617187 40.75195312 19.41015625 C41.41976807 19.40387207 42.08758301 19.39758789 42.77563477 19.39111328 C44.79708232 19.37512197 46.81650655 19.39095421 48.83789062 19.41015625 C56.21741928 19.38816064 62.16886843 18.84066857 69 16 C69 15.34 69 14.68 69 14 C71.90548882 11.95830515 73.40142046 11 77 11 C77.144375 10.401875 77.28875 9.80375 77.4375 9.1875 C77.8872439 7.43849596 78.42892341 5.71322977 79 4 C79.66 4 80.32 4 81 4 C81 3.34 81 2.68 81 2 C84.22791555 -0.1519437 85.28400809 -0.20086443 89 0 C87.42578266 4.20781365 84.2982758 6.64957287 80.9375 9.4375 C80.35693848 9.92323486 79.77637695 10.40896973 79.17822266 10.90942383 C68.09319948 20 68.09319948 20 62 20 C62 20.66 62 21.32 62 22 C51.64742728 25.06725427 34.35782998 25.74326102 24.40625 21.390625 C21.30311943 19.46204385 18.67220207 17.48265141 16 15 C14.8131677 14.08246901 13.62580334 13.16562504 12.4375 12.25 C10.2340039 10.2160036 8.11996646 8.11996646 6 6 C4.9231392 5.0963965 3.83946208 4.20086978 2.75 3.3125 C1.8425 2.549375 0.935 1.78625 0 1 C0 0.67 0 0.34 0 0 Z " fill="#8EF2F0" transform="translate(51,100)"/>
<path d="M0 0 C3 1.5 3 1.5 6 3 C6.625 5.5625 6.625 5.5625 7 8 C6.01 8.495 6.01 8.495 5 9 C4.67 7.68 4.34 6.36 4 5 C3.01 5 2.02 5 1 5 C0.34 9.29 -0.32 13.58 -1 18 C0.32 18 1.64 18 3 18 C3 17.34 3 16.68 3 16 C4.32 16.66 5.64 17.32 7 18 C7 18.66 7 19.32 7 20 C8.32 20.33 9.64 20.66 11 21 C10.01 21.66 9.02 22.32 8 23 C9.98 23.33 11.96 23.66 14 24 C13.01 24.33 12.02 24.66 11 25 C11 25.99 11 26.98 11 28 C8.69 28 6.38 28 4 28 C4 29.32 4 30.64 4 32 C5.32 31.67 6.64 31.34 8 31 C8 31.99 8 32.98 8 34 C9.485 33.505 9.485 33.505 11 33 C11.66 33.66 12.32 34.32 13 35 C8.17630156 36.2403796 4.94271881 35.72287212 0.3125 34 C-4.08427527 32.67267162 -8.43458729 32.34285708 -13 32 C-13 31.34 -13 30.68 -13 30 C-7.15659442 28.75672222 -2.73303505 29.42699038 3 31 C3 29.68 3 28.36 3 27 C1.35 26.67 -0.3 26.34 -2 26 C-2 25.01 -2 24.02 -2 23 C-3.58323688 22.972807 -5.16661062 22.95351694 -6.75 22.9375 C-7.63171875 22.92589844 -8.5134375 22.91429688 -9.421875 22.90234375 C-11.96645215 22.90468583 -11.96645215 22.90468583 -14.21875 23.5859375 C-14.8065625 23.72257812 -15.394375 23.85921875 -16 24 C-17.75 22.6875 -17.75 22.6875 -19 21 C-19 20.34 -19 19.68 -19 19 C-15.04 18.505 -15.04 18.505 -11 18 C-11 16.68 -11 15.36 -11 14 C-10.34 14 -9.68 14 -9 14 C-8.67 12.68 -8.34 11.36 -8 10 C-8 12.64 -8 15.28 -8 18 C-6.68 17.67 -5.36 17.34 -4 17 C-3.83179449 15.06263299 -3.66548905 13.12510094 -3.5 11.1875 C-3.4071875 10.10855469 -3.314375 9.02960937 -3.21875 7.91796875 C-2.96262162 4.98909189 -2.96262162 4.98909189 -3 2 C-2.01 2 -1.02 2 0 2 C0 1.34 0 0.68 0 0 Z " fill="#A87862" transform="translate(126,40)"/>
<path d="M0 0 C0.33 1.32 0.66 2.64 1 4 C2.19496094 4.07347656 2.19496094 4.07347656 3.4140625 4.1484375 C8.93081173 4.53769718 13.79778033 4.99914628 19 7 C19.99 7 20.98 7 22 7 C22 7.99 22 8.98 22 10 C21.34 10 20.68 10 20 10 C19.01 11.485 19.01 11.485 18 13 C17.01 14.485 17.01 14.485 16 16 C15.34 16 14.68 16 14 16 C13.67 16.99 13.34 17.98 13 19 C9.77391477 20.51428491 7.39093721 21.46278394 3.8984375 20.30078125 C1.87247568 19.28021247 -0.05707345 18.16976197 -2 17 C-3.3281948 16.32315378 -4.66019511 15.65356336 -6 15 C-3.36 14.34 -0.72 13.68 2 13 C2 11.68 2 10.36 2 9 C1.3503125 9.99 1.3503125 9.99 0.6875 11 C0.130625 11.66 -0.42625 12.32 -1 13 C-1.99 13 -2.98 13 -4 13 C-4.29380531 4.18584071 -4.29380531 4.18584071 -2 1 C-1.34 0.67 -0.68 0.34 0 0 Z " fill="#B1784F" transform="translate(110,67)"/>
<path d="M0 0 C9.12177122 6.64206642 9.12177122 6.64206642 12 10 C12 10.66 12 11.32 12 12 C13.32 12 14.64 12 16 12 C16.33 14.64 16.66 17.28 17 20 C13.70798357 19.86145912 10.41649291 19.71292976 7.125 19.5625 C6.18785156 19.52318359 5.25070313 19.48386719 4.28515625 19.44335938 C3.38925781 19.40146484 2.49335937 19.35957031 1.5703125 19.31640625 C0.74289551 19.27974854 -0.08452148 19.24309082 -0.93701172 19.20532227 C-3 19 -3 19 -5 18 C-7.79095098 13.58713788 -9.47799942 9.22000584 -10 4 C-6.2089881 5.44950455 -2.6125362 7.15172566 1 9 C1 8.01 1 7.02 1 6 C0.0409375 5.566875 0.0409375 5.566875 -0.9375 5.125 C-3 4 -3 4 -4 2 C-2.68 2 -1.36 2 0 2 C0 1.34 0 0.68 0 0 Z " fill="#D5A591" transform="translate(56,82)"/>
<path d="M0 0 C1.50433594 0.01353516 1.50433594 0.01353516 3.0390625 0.02734375 C3.80992187 0.03894531 4.58078125 0.05054687 5.375 0.0625 C5.375 1.0525 5.375 2.0425 5.375 3.0625 C6.035 3.3925 6.695 3.7225 7.375 4.0625 C4.735 4.7225 2.095 5.3825 -0.625 6.0625 C-0.625 6.7225 -0.625 7.3825 -0.625 8.0625 C-1.285 8.0625 -1.945 8.0625 -2.625 8.0625 C-2.769375 8.660625 -2.91375 9.25875 -3.0625 9.875 C-4.34533119 14.86378795 -4.34533119 14.86378795 -7 16.75 C-9.625 18.0625 -9.625 18.0625 -12.625 18.0625 C-12.625 18.7225 -12.625 19.3825 -12.625 20.0625 C-13.285 19.7325 -13.945 19.4025 -14.625 19.0625 C-14.295 18.0725 -13.965 17.0825 -13.625 16.0625 C-14.19863281 16.206875 -14.77226563 16.35125 -15.36328125 16.5 C-24.75186405 18.55152644 -34.07292633 18.24067339 -43.625 18.0625 C-43.955 17.4025 -44.285 16.7425 -44.625 16.0625 C-42.91957031 16.14951172 -42.91957031 16.14951172 -41.1796875 16.23828125 C-30.92265581 16.60070083 -21.82474639 16.22302256 -12.625 11.0625 C-9.50072835 7.72473645 -8.36863471 5.52430824 -7.625 1.0625 C-4.98041621 -0.25979189 -2.94738699 -0.03427194 0 0 Z " fill="#71F2EF" transform="translate(132.625,95.9375)"/>
<path d="M0 0 C0.99 0.33 1.98 0.66 3 1 C2.67 5.29 2.34 9.58 2 14 C3.65 14.33 5.3 14.66 7 15 C6.67 16.65 6.34 18.3 6 20 C1.05 20.495 1.05 20.495 -4 21 C-4.19437391 14.19691301 -4.13910673 7.53615944 -2 1 C-1.34 0.67 -0.68 0.34 0 0 Z " fill="#F2E2D5" transform="translate(64,39)"/>
<path d="M0 0 C0.99 0.33 1.98 0.66 3 1 C3 2.65 3 4.3 3 6 C3.66 6 4.32 6 5 6 C5 4.68 5 3.36 5 2 C5.99 2 6.98 2 8 2 C8 6.29 8 10.58 8 15 C6.02 15.99 6.02 15.99 4 17 C3 16 3 16 2.9375 13.4375 C2.958125 12.633125 2.97875 11.82875 3 11 C2.34 11 1.68 11 1 11 C0.67 12.65 0.34 14.3 0 16 C-0.99 16 -1.98 16 -3 16 C-3.21663944 10.58401402 -3.16169806 6.08634837 -1 1 C-0.67 0.67 -0.34 0.34 0 0 Z " fill="#F8F0EB" transform="translate(93,39)"/>
<path d="M0 0 C2 0.25 2 0.25 4 1 C4.33 1.99 4.66 2.98 5 4 C6.32 3.67 7.64 3.34 9 3 C9.33 4.32 9.66 5.64 10 7 C9.01 7.495 9.01 7.495 8 8 C8.309375 8.5775 8.61875 9.155 8.9375 9.75 C9.92583364 11.84294184 10.5168613 13.74535275 11 16 C8.75 16.25 8.75 16.25 6 16 C3.6875 14 3.6875 14 2 12 C2 12.66 2 13.32 2 14 C0.68 14 -0.64 14 -2 14 C-1.85970581 11.8537974 -1.71261836 9.70803782 -1.5625 7.5625 C-1.48128906 6.36753906 -1.40007812 5.17257813 -1.31640625 3.94140625 C-1 1 -1 1 0 0 Z " fill="#F7F0E8" transform="translate(127,44)"/>
<path d="M0 0 C2.31 0.33 4.62 0.66 7 1 C7 1.66 7 2.32 7 3 C7.78375 2.814375 8.5675 2.62875 9.375 2.4375 C12 2 12 2 14 3 C14 4.65 14 6.3 14 8 C10.7 8 7.4 8 4 8 C4 8.66 4 9.32 4 10 C-1.625 12 -1.625 12 -5 12 C-4.34 10.02 -3.68 8.04 -3 6 C-2.34 6 -1.68 6 -1 6 C-1 5.34 -1 4.68 -1 4 C-1.66 4 -2.32 4 -3 4 C-2.67 3.34 -2.34 2.68 -2 2 C-1.34 2.33 -0.68 2.66 0 3 C0 2.01 0 1.02 0 0 Z " fill="#AE7054" transform="translate(132,74)"/>
<path d="M0 0 C3.37668083 -0.0062981 6.74913972 0.05355322 10.125 0.125 C11.07632813 0.12242188 12.02765625 0.11984375 13.0078125 0.1171875 C20.95892818 0.33805182 20.95892818 0.33805182 24.34375 3.90625 C24.79379395 4.44652832 25.24383789 4.98680664 25.70751953 5.54345703 C27.60135065 7.67768379 29.71921546 8.44188651 32.375 9.375 C33.68597656 9.85066406 33.68597656 9.85066406 35.0234375 10.3359375 C35.67570312 10.55507812 36.32796875 10.77421875 37 11 C37 11.33 37 11.66 37 12 C31.54294724 11.56343578 28.3305511 10.34633494 24 7 C23.55527344 6.47535156 23.11054687 5.95070313 22.65234375 5.41015625 C20.40834526 3.49506534 18.72437129 3.50158255 15.8125 3.3125 C14.91144531 3.24675781 14.01039062 3.18101563 13.08203125 3.11328125 C12.39496094 3.07589844 11.70789062 3.03851563 11 3 C13.71604715 5.87420123 13.71604715 5.87420123 17 8 C17 8.99 17 9.98 17 11 C17.61875 11.144375 18.2375 11.28875 18.875 11.4375 C21 12 21 12 23 13 C23.625 15.0625 23.625 15.0625 24 17 C19.74496822 15.59941709 17.16598276 13.57379502 13.9375 10.5 C11.0816721 7.78938369 8.64227142 5.54775506 5 4 C5 3.34 5 2.68 5 2 C3.35 1.67 1.7 1.34 0 1 C0 0.67 0 0.34 0 0 Z " fill="#98E7DB" transform="translate(51,100)"/>
<path d="M0 0 C0.99 0 1.98 0 3 0 C3.99 1.98 4.98 3.96 6 6 C6.433125 5.175 6.86625 4.35 7.3125 3.5 C7.869375 2.675 8.42625 1.85 9 1 C9.99 1 10.98 1 12 1 C12.30017023 5.16486198 11.45324946 7.65015727 9.5 11.3125 C9.0359375 12.19550781 8.571875 13.07851563 8.09375 13.98828125 C7.7328125 14.65214844 7.371875 15.31601562 7 16 C5.68 16 4.36 16 3 16 C2.29695778 14.27709395 1.61316509 12.54632534 0.9375 10.8125 C0.55464844 9.84957031 0.17179687 8.88664062 -0.22265625 7.89453125 C-1.05622133 4.79065325 -0.88679818 3.05080883 0 0 Z " fill="#F3E9DF" transform="translate(105,41)"/>
<path d="M0 0 C0.66 0 1.32 0 2 0 C2.44512755 3.73907142 2.15385949 5.71003405 0.375 9.0625 C-4.84747836 14.63804731 -13.38950593 16.59714487 -20.7109375 17.4140625 C-27.47242163 17.57539943 -33.88891232 17.11265681 -40 14 C-40.66 13.34 -41.32 12.68 -42 12 C-33.72240803 12.86454849 -33.72240803 12.86454849 -30 13.5625 C-23.25833745 14.54565912 -16.70923587 13.97588885 -10 13 C-10 12.34 -10 11.68 -10 11 C-8.02 11 -6.04 11 -4 11 C-3.67 9.68 -3.34 8.36 -3 7 C-2.34 7 -1.68 7 -1 7 C-0.67 4.69 -0.34 2.38 0 0 Z " fill="#D8F496" transform="translate(123,96)"/>
<path d="M0 0 C0.33 2.97 0.66 5.94 1 9 C0.01 8.01 -0.98 7.02 -2 6 C-4.58416247 5.66625723 -4.58416247 5.66625723 -7 6 C-8.29633621 7.06645115 -8.29633621 7.06645115 -8.0625 9.5625 C-8.041875 10.366875 -8.02125 11.17125 -8 12 C-6.68 12.33 -5.36 12.66 -4 13 C-4 13.66 -4 14.32 -4 15 C-7.375 15.125 -7.375 15.125 -11 15 C-13 13 -13 13 -13.4375 9.1875 C-13.33330662 5.82266671 -12.97086646 4.95629969 -11 2 C-6.97020535 -0.68652977 -4.76065969 -0.40344574 0 0 Z " fill="#FAF3F0" transform="translate(85,41)"/>
<path d="M0 0 C1.47668858 0.0133035 2.95331108 0.03716415 4.4296875 0.0703125 C5.18378906 0.07933594 5.93789062 0.08835938 6.71484375 0.09765625 C8.57826004 0.1212438 10.44151343 0.15711531 12.3046875 0.1953125 C12.3046875 2.5053125 12.3046875 4.8153125 12.3046875 7.1953125 C4.79164402 7.32052989 4.79164402 7.32052989 2.1171875 6.6328125 C-0.34918954 6.03748011 -2.26536371 6.5878253 -4.6953125 7.1953125 C-5.3203125 4.8203125 -5.3203125 4.8203125 -5.6953125 2.1953125 C-3.6953125 0.1953125 -3.6953125 0.1953125 0 0 Z " fill="#EFE0DC" transform="translate(95.6953125,61.8046875)"/>
<path d="M0 0 C0.33 0 0.66 0 1 0 C1.12375 0.969375 1.2475 1.93875 1.375 2.9375 C1.58125 3.948125 1.7875 4.95875 2 6 C2.66 6.33 3.32 6.66 4 7 C3.01 10.3 2.02 13.6 1 17 C-1.9296875 16.95117188 -1.9296875 16.95117188 -4.859375 16.90234375 C-7.33999176 16.94469744 -7.33999176 16.94469744 -11 18 C-10.01 14.04 -9.02 10.08 -8 6 C-7.34 6 -6.68 6 -6 6 C-5.67 7.65 -5.34 9.3 -5 11 C-4.01 10.67 -3.02 10.34 -2 10 C-1.34 6.7 -0.68 3.4 0 0 Z " fill="#A26F55" transform="translate(102,44)"/>
<path d="M0 0 C0.99 0 1.98 0 3 0 C3 0.66 3 1.32 3 2 C3.72703125 2.24105469 4.4540625 2.48210937 5.203125 2.73046875 C8.37514467 4.17028215 10.25829124 5.89000537 12.75 8.3125 C22.99185317 17.74898489 31.65147362 19.18556388 45.1875 19.125 C46.50137695 19.13080078 46.50137695 19.13080078 47.84179688 19.13671875 C52.02083058 19.13038208 55.92671622 19.06259577 60 18 C60 18.66 60 19.32 60 20 C49.64742728 23.06725427 32.35782998 23.74326102 22.40625 19.390625 C19.30311943 17.46204385 16.67220207 15.48265141 14 13 C12.8131677 12.08246901 11.62580334 11.16562504 10.4375 10.25 C8.23234183 8.21446938 6.08676764 6.15632656 4 4 C3.2575 3.2575 2.515 2.515 1.75 1.75 C1.1725 1.1725 0.595 0.595 0 0 Z " fill="#C8FAFA" transform="translate(53,102)"/>
<path d="M0 0 C0.89203125 0.11085937 1.7840625 0.22171875 2.703125 0.3359375 C3.37859375 0.43132813 4.0540625 0.52671875 4.75 0.625 C4.09 2.935 3.43 5.245 2.75 7.625 C2.09 7.625 1.43 7.625 0.75 7.625 C0.42 8.285 0.09 8.945 -0.25 9.625 C-0.58 8.305 -0.91 6.985 -1.25 5.625 C-2.24 7.11 -2.24 7.11 -3.25 8.625 C-6.875 8.8125 -6.875 8.8125 -10.25 8.625 C-10 5.25 -10 5.25 -9.25 1.625 C-6.13259069 -0.64220677 -3.7237948 -0.489973 0 0 Z " fill="#D3BAA9" transform="translate(80.25,62.375)"/>
<path d="M0 0 C0 0.66 0 1.32 0 2 C-4.38461538 5 -4.38461538 5 -7 5 C-6.34 6.32 -5.68 7.64 -5 9 C-6.11375 8.979375 -7.2275 8.95875 -8.375 8.9375 C-11.83215921 8.73619282 -11.83215921 8.73619282 -14 10 C-14 9.01 -14 8.02 -14 7 C-14.99 7.33 -15.98 7.66 -17 8 C-18.56118428 8.06740865 -20.1250252 8.08514456 -21.6875 8.0625 C-22.89986328 8.04896484 -22.89986328 8.04896484 -24.13671875 8.03515625 C-25.05904297 8.01775391 -25.05904297 8.01775391 -26 8 C-26.33 7.34 -26.66 6.68 -27 6 C-25.95199219 5.83564453 -25.95199219 5.83564453 -24.8828125 5.66796875 C-23.51769531 5.43013672 -23.51769531 5.43013672 -22.125 5.1875 C-20.76761719 4.96126953 -20.76761719 4.96126953 -19.3828125 4.73046875 C-16.65587522 4.16948699 -16.65587522 4.16948699 -15 1 C-13.96939453 1.14308594 -13.96939453 1.14308594 -12.91796875 1.2890625 C-12.01691406 1.39992187 -11.11585937 1.51078125 -10.1875 1.625 C-8.84751953 1.79902344 -8.84751953 1.79902344 -7.48046875 1.9765625 C-4.29839664 2.00662932 -3.08053047 0 0 0 Z " fill="#9F6E56" transform="translate(87,54)"/>
<path d="M0 0 C0.66 0.33 1.32 0.66 2 1 C2.47493725 5.84435994 2.72418203 8.9563259 -0.125 13.0625 C-3.42316144 15.28517401 -5.10496422 15.45291114 -9 15 C-9 14.67 -9 14.34 -9 14 C-7.35 14 -5.7 14 -4 14 C-4 13.34 -4 12.68 -4 12 C-5.65 11.67 -7.3 11.34 -9 11 C-9.125 8.625 -9.125 8.625 -9 6 C-7 4 -7 4 -4.5 3.6875 C-3.2625 3.8421875 -3.2625 3.8421875 -2 4 C-1.01 5.485 -1.01 5.485 0 7 C0 4.69 0 2.38 0 0 Z " fill="#F0DDD8" transform="translate(85,42)"/>
<path d="M0 0 C2.19050021 0.09017996 4.378466 0.24666208 6.5625 0.4375 C7.76003906 0.53933594 8.95757812 0.64117187 10.19140625 0.74609375 C11.11824219 0.82988281 12.04507813 0.91367188 13 1 C13 1.66 13 2.32 13 3 C13.66 3 14.32 3 15 3 C15 4.32 15 5.64 15 7 C10.05 6.67 5.1 6.34 0 6 C-0.33 4.35 -0.66 2.7 -1 1 C-0.67 0.67 -0.34 0.34 0 0 Z " fill="#DFCEBF" transform="translate(114,64)"/>
<path d="M0 0 C1.32 0.33 2.64 0.66 4 1 C2.1875 3 2.1875 3 0 5 C-0.99 5 -1.98 5 -3 5 C-3.1546875 5.86625 -3.1546875 5.86625 -3.3125 6.75 C-4.11649921 9.38127015 -5.13067515 10.98688093 -7 13 C-7.99 13 -8.98 13 -10 13 C-9.87625 13.721875 -9.7525 14.44375 -9.625 15.1875 C-10.06001831 18.45013736 -10.55561151 18.8041996 -13 20.8125 C-13.99 21.534375 -14.98 22.25625 -16 23 C-16.33 22.34 -16.66 21.68 -17 21 C-11.96351703 13.31185878 -6.294753 6.66205247 0 0 Z " fill="#CEB0A1" transform="translate(74,16)"/>
<path d="M0 0 C1.65 1.65 3.3 3.3 5 5 C4.34 5 3.68 5 3 5 C3.66 6.65 4.32 8.3 5 10 C4.34 10.66 3.68 11.32 3 12 C-1.12236645 11.65646946 -4.47734806 10.11359117 -8 8 C-9.375 5.8125 -9.375 5.8125 -10 4 C-6.2089881 5.44950455 -2.6125362 7.15172566 1 9 C1 8.01 1 7.02 1 6 C0.0409375 5.566875 0.0409375 5.566875 -0.9375 5.125 C-3 4 -3 4 -4 2 C-2.68 2 -1.36 2 0 2 C0 1.34 0 0.68 0 0 Z " fill="#D0A97D" transform="translate(56,82)"/>
<path d="M0 0 C0.99 0 1.98 0 3 0 C3 1.98 3 3.96 3 6 C4.65 6 6.3 6 8 6 C8.33 7.65 8.66 9.3 9 11 C4.545 11.495 4.545 11.495 0 12 C-1.28571429 3.42857143 -1.28571429 3.42857143 0 0 Z " fill="#F9F4EE" transform="translate(62,47)"/>
<path d="M0 0 C2.97 0 5.94 0 9 0 C8.34 1.32 7.68 2.64 7 4 C6.34 4 5.68 4 5 4 C5 4.66 5 5.32 5 6 C4.34 6 3.68 6 3 6 C2.67 7.32 2.34 8.64 2 10 C-1 10 -1 10 -4 9 C-2.68 6.03 -1.36 3.06 0 0 Z " fill="#6ECBEC" transform="translate(127,98)"/>
<path d="M0 0 C0.99 0.33 1.98 0.66 3 1 C2.67 4.96 2.34 8.92 2 13 C0.35 13.33 -1.3 13.66 -3 14 C-3.08153933 12.41753293 -3.13943557 10.83383727 -3.1875 9.25 C-3.22230469 8.36828125 -3.25710937 7.4865625 -3.29296875 6.578125 C-2.94923684 3.55328417 -1.99772541 2.24416398 0 0 Z " fill="#F3E3D9" transform="translate(121,44)"/>
<path d="M0 0 C2 1 4 2 6 3 C6.625 5.5625 6.625 5.5625 7 8 C6.01 8.495 6.01 8.495 5 9 C4.67 7.68 4.34 6.36 4 5 C3.01 5 2.02 5 1 5 C0.34 9.95 -0.32 14.9 -1 20 C-2.98 20 -4.96 20 -7 20 C-5.68 19.67 -4.36 19.34 -3 19 C-3 18.02417969 -3 17.04835938 -3 16.04296875 C-3 11.36197917 -3 6.68098958 -3 2 C-2.01 2 -1.02 2 0 2 C0 1.34 0 0.68 0 0 Z " fill="#977465" transform="translate(126,40)"/>
<path d="M0 0 C0.99 0 1.98 0 3 0 C3 2.64 3 5.28 3 8 C-0.63 8.33 -4.26 8.66 -8 9 C-8 6.36 -8 3.72 -8 1 C-7.34 1 -6.68 1 -6 1 C-6 2.32 -6 3.64 -6 5 C-5.01 5 -4.02 5 -3 5 C-2.505 4.175 -2.01 3.35 -1.5 2.5 C-1.005 1.675 -0.51 0.85 0 0 Z " fill="#DBBFAE" transform="translate(66,64)"/>
<path d="M0 0 C1.32 0 2.64 0 4 0 C4.33 2.64 4.66 5.28 5 8 C1.70798357 7.86145912 -1.58350709 7.71292976 -4.875 7.5625 C-5.81214844 7.52318359 -6.74929687 7.48386719 -7.71484375 7.44335938 C-8.61074219 7.40146484 -9.50664063 7.35957031 -10.4296875 7.31640625 C-11.25710449 7.27974854 -12.08452148 7.24309082 -12.93701172 7.20532227 C-15 7 -15 7 -17 6 C-16.67 5.01 -16.34 4.02 -16 3 C-15.01 3.33 -14.02 3.66 -13 4 C-10.60745424 4.22560676 -8.21071877 4.40848595 -5.8125 4.5625 C-3.90404297 4.68818359 -3.90404297 4.68818359 -1.95703125 4.81640625 C-0.98121094 4.87699219 -0.00539063 4.93757813 1 5 C0.67 3.35 0.34 1.7 0 0 Z " fill="#BFB1A3" transform="translate(68,94)"/>
<path d="M0 0 C0.99 0 1.98 0 3 0 C2.67 1.65 2.34 3.3 2 5 C2.99 5.33 3.98 5.66 5 6 C4.67 7.32 4.34 8.64 4 10 C1.69 9.67 -0.62 9.34 -3 9 C-3 8.01 -3 7.02 -3 6 C-4.32 6.33 -5.64 6.66 -7 7 C-7 5.68 -7 4.36 -7 3 C-4.69 3 -2.38 3 0 3 C0 2.01 0 1.02 0 0 Z " fill="#DCC6BA" transform="translate(137,65)"/>
<path d="M0 0 C0.66 0 1.32 0 2 0 C4.37823834 4.40414508 4.37823834 4.40414508 5 7 C3.6875 10.4375 3.6875 10.4375 2 13 C1.34 13 0.68 13 0 13 C-4 8.64705882 -4 8.64705882 -4 5 C-3.01 4.67 -2.02 4.34 -1 4 C-0.26676204 1.98491642 -0.26676204 1.98491642 0 0 Z " fill="#AA724F" transform="translate(68,81)"/>
<path d="M0 0 C0 0.99 0 1.98 0 3 C-0.66 3 -1.32 3 -2 3 C-2.33 5.31 -2.66 7.62 -3 10 C-3.33 10 -3.66 10 -4 10 C-4 7.69 -4 5.38 -4 3 C-7.73639216 4.24546405 -8.18756513 5.63404953 -10 9 C-10.99 8.67 -11.98 8.34 -13 8 C-12.42415568 5.61435923 -11.77772405 3.33317216 -11 1 C-3.375 0 -3.375 0 0 0 Z " fill="#A4715D" transform="translate(73,61)"/>
<path d="M0 0 C1.32 0 2.64 0 4 0 C3.8046875 1.796875 3.8046875 1.796875 3 4 C0.8203125 5.703125 0.8203125 5.703125 -1.875 7.25 C-3.20144531 8.03117187 -3.20144531 8.03117187 -4.5546875 8.828125 C-7 10 -7 10 -10 10 C-9.67 8.68 -9.34 7.36 -9 6 C-8.34 6 -7.68 6 -7 6 C-7 5.34 -7 4.68 -7 4 C-5.5459375 3.2884375 -5.5459375 3.2884375 -4.0625 2.5625 C-1.19522563 1.29806053 -1.19522563 1.29806053 0 0 Z " fill="#F6E37E" transform="translate(141,82)"/>
<path d="M0 0 C0.99 0 1.98 0 3 0 C3.99 1.98 4.98 3.96 6 6 C6.99 4.35 7.98 2.7 9 1 C10 3 10 3 9.75 5 C9 7 9 7 6 9 C3.3125 9.125 3.3125 9.125 1 9 C-0.61949011 6.42786866 -1.04408751 5.32330841 -0.625 2.25 C-0.41875 1.5075 -0.2125 0.765 0 0 Z " fill="#EBDAD2" transform="translate(105,41)"/>
<path d="M0 0 C2 4 2 4 2 7 C2.99 7 3.98 7 5 7 C5.9765625 13.0546875 5.9765625 13.0546875 6 15 C5.34 15.66 4.68 16.32 4 17 C3.67 16.01 3.34 15.02 3 14 C1.68 13.67 0.36 13.34 -1 13 C-0.67 8.71 -0.34 4.42 0 0 Z " fill="#A77E6C" transform="translate(67,40)"/>
<path d="M0 0 C1.50433594 0.01353516 1.50433594 0.01353516 3.0390625 0.02734375 C3.80992187 0.03894531 4.58078125 0.05054687 5.375 0.0625 C5.375 1.0525 5.375 2.0425 5.375 3.0625 C6.035 3.3925 6.695 3.7225 7.375 4.0625 C6.055 4.0625 4.735 4.0625 3.375 4.0625 C3.375 3.4025 3.375 2.7425 3.375 2.0625 C0.405 2.0625 -2.565 2.0625 -5.625 2.0625 C-5.91375 3.155625 -6.2025 4.24875 -6.5 5.375 C-7.625 9.0625 -7.625 9.0625 -9.625 12.0625 C-10.615 11.7325 -11.605 11.4025 -12.625 11.0625 C-11.985625 10.340625 -11.34625 9.61875 -10.6875 8.875 C-8.60968484 6.04161569 -8.18725359 4.43602152 -7.625 1.0625 C-4.98041621 -0.25979189 -2.94738699 -0.03427194 0 0 Z " fill="#93ABB6" transform="translate(132.625,95.9375)"/>
<path d="M0 0 C1.79447617 2.20231167 3.00262953 4.00706686 4 6.6875 C4.33 7.450625 4.66 8.21375 5 9 C5.99 9.33 6.98 9.66 8 10 C7.01 10 6.02 10 5 10 C5 10.66 5 11.32 5 12 C0.58110387 10.64978174 -1.34345343 8.73884332 -4 5 C-3.67 4.34 -3.34 3.68 -3 3 C-2.34 3.33 -1.68 3.66 -1 4 C-0.67 2.68 -0.34 1.36 0 0 Z " fill="#B48557" transform="translate(59,76)"/>
<path d="M0 0 C0 0.66 0 1.32 0 2 C-4.75 4 -4.75 4 -7 4 C-7.33 5.98 -7.66 7.96 -8 10 C-9.32 10 -10.64 10 -12 10 C-12 8.02 -12 6.04 -12 4 C-11.34 4 -10.68 4 -10 4 C-9.67 3.01 -9.34 2.02 -9 1 C-5.65441284 -0.80842549 -3.59559792 -1.33170293 0 0 Z " fill="#A77A62" transform="translate(100,68)"/>
<path d="M0 0 C0.33 0.66 0.66 1.32 1 2 C1.99 2.33 2.98 2.66 4 3 C7 7.33333333 7 7.33333333 7 10 C5.375 11.1875 5.375 11.1875 3 12 C-0.25 10.625 -0.25 10.625 -3 9 C-2.01 8.67 -1.02 8.34 0 8 C0 5.36 0 2.72 0 0 Z " fill="#AF7E65" transform="translate(136,38)"/>
<path d="M0 0 C0.66 0.33 1.32 0.66 2 1 C3.99960012 1.039992 6.00047242 1.04346799 8 1 C7.67 1.66 7.34 2.32 7 3 C5.68 3 4.36 3 3 3 C3 4.98 3 6.96 3 9 C2.67 8.34 2.34 7.68 2 7 C1.34 7 0.68 7 0 7 C0 6.34 0 5.68 0 5 C-0.66 5 -1.32 5 -2 5 C-2.28875 5.804375 -2.5775 6.60875 -2.875 7.4375 C-4 10 -4 10 -6 11 C-5.55530671 5.96014269 -3.28656638 3.62365012 0 0 Z " fill="#AC7863" transform="translate(59,37)"/>
<path d="M0 0 C0 0.66 0 1.32 0 2 C-1.24891614 2.48198463 -2.49918808 2.96045677 -3.75 3.4375 C-4.79414062 3.83775391 -4.79414062 3.83775391 -5.859375 4.24609375 C-9.50583385 5.5303393 -12.6724044 6.12383511 -16.546875 6.09765625 C-17.39121094 6.09443359 -18.23554687 6.09121094 -19.10546875 6.08789062 C-19.97816406 6.07951172 -20.85085937 6.07113281 -21.75 6.0625 C-22.63816406 6.05798828 -23.52632812 6.05347656 -24.44140625 6.04882812 C-26.62767329 6.037074 -28.81380179 6.02064249 -31 6 C-31.33 5.34 -31.66 4.68 -32 4 C-30.83984375 4.04640625 -29.6796875 4.0928125 -28.484375 4.140625 C-19.75407701 4.38022151 -12.4333946 4.17335784 -4.1875 0.875 C-2 0 -2 0 0 0 Z " fill="#76CBA0" transform="translate(120,108)"/>
<path d="M0 0 C0 3 0 3 -3 9 C-7.95 9 -12.9 9 -18 9 C-17.67 8.34 -17.34 7.68 -17 7 C-14.71484375 6.5859375 -14.71484375 6.5859375 -11.9375 6.375 C-11.01839844 6.30023438 -10.09929687 6.22546875 -9.15234375 6.1484375 C-8.08693359 6.07496094 -8.08693359 6.07496094 -7 6 C-7 5.34 -7 4.68 -7 4 C-4.69 2.68 -2.38 1.36 0 0 Z " fill="#A4755E" transform="translate(143,88)"/>
<path d="M0 0 C0.66 0 1.32 0 2 0 C2 2.31 2 4.62 2 7 C5.3 7.33 8.6 7.66 12 8 C12 8.33 12 8.66 12 9 C2.595 9.495 2.595 9.495 -7 10 C-4 7 -4 7 -1 6 C-0.67 4.02 -0.34 2.04 0 0 Z " fill="#A97744" transform="translate(92,72)"/>
<path d="M0 0 C-1.32 0.99 -2.64 1.98 -4 3 C-3.67 4.98 -3.34 6.96 -3 9 C-5.31 9 -7.62 9 -10 9 C-9.75 5.625 -9.75 5.625 -9 2 C-6.19227664 -0.30634419 -3.53567531 -0.19642641 0 0 Z " fill="#B19182" transform="translate(80,62)"/>
<path d="M0 0 C0.33 0 0.66 0 1 0 C1 4.29 1 8.58 1 13 C-0.98 13.99 -0.98 13.99 -3 15 C-4 14 -4 14 -4.0625 11.4375 C-4.041875 10.633125 -4.02125 9.82875 -4 9 C-4.66 8.67 -5.32 8.34 -6 8 C-5.195625 7.79375 -4.39125 7.5875 -3.5625 7.375 C-2.716875 6.92125 -1.87125 6.4675 -1 6 C-0.10169161 2.94727535 -0.10169161 2.94727535 0 0 Z " fill="#E9DDD2" transform="translate(100,41)"/>
<path d="M0 0 C2.31 0 4.62 0 7 0 C7 2.31 7 4.62 7 7 C4.36 7 1.72 7 -1 7 C-1.33 6.01 -1.66 5.02 -2 4 C-1.01 4 -0.02 4 1 4 C1.33 3.01 1.66 2.02 2 1 C1.34 0.67 0.68 0.34 0 0 Z " fill="#D7BDB4" transform="translate(101,62)"/>
<path d="M0 0 C0.78375 0.04125 1.5675 0.0825 2.375 0.125 C2.5 2.5 2.5 2.5 2.375 5.125 C0.375 7.125 0.375 7.125 -2.25 7.25 C-3.03375 7.20875 -3.8175 7.1675 -4.625 7.125 C-4.75 4.75 -4.75 4.75 -4.625 2.125 C-2.625 0.125 -2.625 0.125 0 0 Z " fill="#A37E6D" transform="translate(80.625,45.875)"/>
<path d="M0 0 C1.14889133 3.93905597 1.52582695 7.93565958 2 12 C2.66 12 3.32 12 4 12 C4.99 14.31 5.98 16.62 7 19 C4.12206249 17.70989008 2.03816083 16.42638194 0 14 C-0.94238698 11.17283905 -1.13465647 9.36823877 -1.125 6.4375 C-1.12757812 5.65246094 -1.13015625 4.86742188 -1.1328125 4.05859375 C-1 2 -1 2 0 0 Z " fill="#E3ED89" transform="translate(73,89)"/>
<path d="M0 0 C0.57202148 0.16226074 1.14404297 0.32452148 1.73339844 0.49169922 C3.99279927 0.99838519 5.95466401 1.12921287 8.265625 1.1328125 C9.07386719 1.13410156 9.88210937 1.13539062 10.71484375 1.13671875 C11.96974609 1.13091797 11.96974609 1.13091797 13.25 1.125 C14.48169922 1.13080078 14.48169922 1.13080078 15.73828125 1.13671875 C20.91340706 1.12851728 25.87826662 0.74347743 31 0 C30.01 0.495 30.01 0.495 29 1 C28.34786708 3.02463255 28.34786708 3.02463255 28 5 C27.67 4.01 27.34 3.02 27 2 C26.01 2.33 25.02 2.66 24 3 C20.50429198 3.25364636 17.00395558 3.23123719 13.5 3.25 C12.53707031 3.270625 11.57414062 3.29125 10.58203125 3.3125 C9.19564453 3.32023437 9.19564453 3.32023437 7.78125 3.328125 C6.93626953 3.3374707 6.09128906 3.34681641 5.22070312 3.35644531 C2.54509419 2.92698302 1.67984321 2.06907517 0 0 Z " fill="#70E5D5" transform="translate(85,112)"/>
<path d="M0 0 C0.625 1.8125 0.625 1.8125 1 4 C0.01 5.485 0.01 5.485 -1 7 C-1.66 7 -2.32 7 -3 7 C-3.33 7.99 -3.66 8.98 -4 10 C-4.99 10 -5.98 10 -7 10 C-6.84518205 7.29068581 -6.51827919 5.53415961 -4.59765625 3.5546875 C-3.10228292 2.32320358 -1.5537076 1.1570163 0 0 Z " fill="#EDDC76" transform="translate(127,76)"/>
<path d="M0 0 C2.5 2.3125 2.5 2.3125 5 5 C5 5.99 5 6.98 5 8 C2.75 8.25 2.75 8.25 0 8 C-2.3125 6 -2.3125 6 -4 4 C-4.33 4.66 -4.66 5.32 -5 6 C-4.75 4.125 -4.75 4.125 -4 2 C-1.9375 0.75 -1.9375 0.75 0 0 Z " fill="#F0E4D7" transform="translate(133,52)"/>
<path d="M0 0 C1.25541557 3.76624671 0.37061958 5.37188934 -1 9 C-1.66 9 -2.32 9 -3 9 C-3 10.32 -3 11.64 -3 13 C-4.98 13.33 -6.96 13.66 -9 14 C-8.67 13.34 -8.34 12.68 -8 12 C-7.34 12 -6.68 12 -6 12 C-5.72736328 11.07767578 -5.72736328 11.07767578 -5.44921875 10.13671875 C-5.07216797 8.92435547 -5.07216797 8.92435547 -4.6875 7.6875 C-4.44386719 6.88699219 -4.20023437 6.08648437 -3.94921875 5.26171875 C-2.95817977 2.90035427 -1.91925057 1.66120007 0 0 Z " fill="#8D6654" transform="translate(118,45)"/>
<path d="M0 0 C0 1.32 0 2.64 0 4 C-2.64738916 5.4606285 -3.89448334 6 -7 6 C-8.6875 4.625 -8.6875 4.625 -10 3 C-10 2.34 -10 1.68 -10 1 C-6.59437148 0.22157062 -3.49234244 -0.09978121 0 0 Z " fill="#B06E51" transform="translate(117,58)"/>
<path d="M0 0 C0 0.66 0 1.32 0 2 C1.65 2.33 3.3 2.66 5 3 C3.3125 4.125 3.3125 4.125 1 5 C-0.67667436 4.35891863 -2.34089996 3.68528045 -4 3 C-7.32282426 2.52531082 -10.65321502 2.24694724 -14 2 C-14 1.34 -14 0.68 -14 0 C-9.20699867 -1.39151652 -4.84864218 -0.68662689 0 0 Z " fill="#A17458" transform="translate(127,70)"/>
<path d="M0 0 C1.98 0 3.96 0 6 0 C6.33 2.97 6.66 5.94 7 9 C6.01 8.01 5.02 7.02 4 6 C4 5.34 4 4.68 4 4 C2.35 4 0.7 4 -1 4 C-0.67 2.68 -0.34 1.36 0 0 Z " fill="#FAF6F0" transform="translate(79,41)"/>
<path d="M0 0 C3.85645478 1.13940709 7.06505829 2.17794066 10 5 C10 5.99 10 6.98 10 8 C6.14354522 6.86059291 2.93494171 5.82205934 0 3 C0 2.01 0 1.02 0 0 Z " fill="#FAE68C" transform="translate(47,83)"/>
<path d="M0 0 C1.65 0 3.3 0 5 0 C4.21625 0.70125 3.4325 1.4025 2.625 2.125 C-0.18262843 4.80411752 -0.18262843 4.80411752 -1.0625 8.25 C-2 11 -2 11 -3.875 12.0625 C-6.71960718 11.97883508 -7.91725102 10.8595973 -10 9 C-8.35 9 -6.7 9 -5 9 C-4.34 7.35 -3.68 5.7 -3 4 C-2.34 4 -1.68 4 -1 4 C-0.67 2.68 -0.34 1.36 0 0 Z " fill="#B18748" transform="translate(122,76)"/>
<path d="M0 0 C2.97 0 5.94 0 9 0 C8.375 2.375 8.375 2.375 7 5 C3.875 6.3125 3.875 6.3125 1 7 C1.33 5.02 1.66 3.04 2 1 C1.34 0.67 0.68 0.34 0 0 Z " fill="#AD7F69" transform="translate(83,62)"/>
<path d="M0 0 C1.32 0.33 2.64 0.66 4 1 C4.12375 1.825 4.2475 2.65 4.375 3.5 C5.07102155 7.39772067 6.00880949 11.16739669 7 15 C5.68 14.34 4.36 13.68 3 13 C3.33 12.34 3.66 11.68 4 11 C3.67 10.67 3.34 10.34 3 10 C2.31246699 8.34183216 1.64438717 6.67540664 1 5 C0.67 5 0.34 5 0 5 C0 3.35 0 1.7 0 0 Z " fill="#A7846F" transform="translate(101,41)"/>
<path d="M0 0 C0.66 0.33 1.32 0.66 2 1 C2 1.66 2 2.32 2 3 C3.98 2.67 5.96 2.34 8 2 C5.95087971 4.04912029 4.79058091 4.60188499 2.125 5.5625 C1.44695312 5.81128906 0.76890625 6.06007813 0.0703125 6.31640625 C-1.93750802 6.97936586 -3.94253445 7.5156191 -6 8 C-6 7.01 -6 6.02 -6 5 C-5.01 5 -4.02 5 -3 5 C-2.5359375 4.0409375 -2.5359375 4.0409375 -2.0625 3.0625 C-1 1 -1 1 0 0 Z " fill="#D0A594" transform="translate(70,24)"/>
<path d="M0 0 C1.65 0 3.3 0 5 0 C3 3 3 3 0.375 3.6875 C-0.40875 3.790625 -1.1925 3.89375 -2 4 C-2 4.66 -2 5.32 -2 6 C-3.875 6.625 -3.875 6.625 -6 7 C-6.66 6.34 -7.32 5.68 -8 5 C-6.8125 3.5 -6.8125 3.5 -5 2 C-2.3125 1.8125 -2.3125 1.8125 0 2 C0 1.34 0 0.68 0 0 Z " fill="#B37C47" transform="translate(136,82)"/>
<path d="M0 0 C1.65 0.33 3.3 0.66 5 1 C5 1.66 5 2.32 5 3 C4.34 3 3.68 3 3 3 C3 4.32 3 5.64 3 7 C4.32 6.67 5.64 6.34 7 6 C7 6.99 7 7.98 7 9 C7.99 8.67 8.98 8.34 10 8 C10.66 8.66 11.32 9.32 12 10 C9.625 10.625 9.625 10.625 7 11 C6.34 10.34 5.68 9.68 5 9 C3.01178687 8.60235737 1.01055661 8.26224651 -1 8 C-0.67 7.34 -0.34 6.68 0 6 C0.66 6 1.32 6 2 6 C2 4.68 2 3.36 2 2 C1.34 2 0.68 2 0 2 C0 1.34 0 0.68 0 0 Z " fill="#B08B7D" transform="translate(127,65)"/>
<path d="M0 0 C2.71097227 0.37392721 3.82000467 0.81357627 5.75 2.8125 C7 5 7 5 7 9 C6.01 9 5.02 9 4 9 C0 3.85714286 0 3.85714286 0 0 Z " fill="#F8E183" transform="translate(60,76)"/>
<path d="M0 0 C0.66 0.33 1.32 0.66 2 1 C1.67 1.99 1.34 2.98 1 4 C2.65 4 4.3 4 6 4 C6 4.33 6 4.66 6 5 C3.69 5.66 1.38 6.32 -1 7 C-1 6.34 -1 5.68 -1 5 C-1.99 5.495 -1.99 5.495 -3 6 C-3 8.64 -3 11.28 -3 14 C-3.66 13.67 -4.32 13.34 -5 13 C-5.61538462 5.73846154 -5.61538462 5.73846154 -2.5 2 C-1.675 1.34 -0.85 0.68 0 0 Z " fill="#E5D8CC" transform="translate(77,41)"/>
<path d="M0 0 C1.65 0 3.3 0 5 0 C5 2.31 5 4.62 5 7 C3.35 6.67 1.7 6.34 0 6 C0 4.02 0 2.04 0 0 Z " fill="#E1C077" transform="translate(74,73)"/>
<path d="M0 0 C1.65 0 3.3 0 5 0 C5.33 0.66 5.66 1.32 6 2 C5.0625 4.125 5.0625 4.125 4 6 C2.35 5.67 0.7 5.34 -1 5 C-0.67 3.35 -0.34 1.7 0 0 Z " fill="#B59E8D" transform="translate(114,64)"/>
<path d="M0 0 C0.33 0 0.66 0 1 0 C1.9771024 4.2842182 2.38290592 8.56352901 2.6875 12.9375 C2.74744141 13.62779297 2.80738281 14.31808594 2.86914062 15.02929688 C3.17847367 19.49979496 2.69249647 22.85630174 1 27 C0.67 27 0.34 27 0 27 C0 18.09 0 9.18 0 0 Z " fill="#DAC6BB" transform="translate(160,49)"/>
<path d="M0 0 C0.99 0.33 1.98 0.66 3 1 C3.33 2.98 3.66 4.96 4 7 C2.68 6.67 1.36 6.34 0 6 C-0.66 7.65 -1.32 9.3 -2 11 C-3.46761039 7.18421299 -2.4801051 4.70026276 -1 1 C-0.67 0.67 -0.34 0.34 0 0 Z " fill="#E7D1CA" transform="translate(93,39)"/>
<path d="M0 0 C2.0078125 0.328125 2.0078125 0.328125 5.0078125 3.328125 C-0.2721875 3.328125 -5.5521875 3.328125 -10.9921875 3.328125 C-9.6721875 2.668125 -8.3521875 2.008125 -6.9921875 1.328125 C-5.11954074 -0.54452176 -2.49458803 0.09205122 0 0 Z " fill="#B77D69" transform="translate(107.9921875,20.671875)"/>
<path d="M0 0 C0.33 0 0.66 0 1 0 C1.12375 0.969375 1.2475 1.93875 1.375 2.9375 C1.58125 3.948125 1.7875 4.95875 2 6 C2.66 6.33 3.32 6.66 4 7 C3.67 7.66 3.34 8.32 3 9 C2.34 8.67 1.68 8.34 1 8 C0.34 10.31 -0.32 12.62 -1 15 C-1.99 14.67 -2.98 14.34 -4 14 C-3.69320312 13.44828125 -3.38640625 12.8965625 -3.0703125 12.328125 C-1.90557059 9.79459879 -1.37942044 7.48828238 -0.875 4.75 C-0.70742187 3.85796875 -0.53984375 2.9659375 -0.3671875 2.046875 C-0.24601562 1.37140625 -0.12484375 0.6959375 0 0 Z " fill="#956A58" transform="translate(102,44)"/>
<path d="M0 0 C0.66 0 1.32 0 2 0 C2 0.66 2 1.32 2 2 C2.66 2 3.32 2 4 2 C3.67 5.63 3.34 9.26 3 13 C1.68 13.33 0.36 13.66 -1 14 C-0.67 13.34 -0.34 12.68 0 12 C0.07065617 9.95944995 0.08421976 7.91665743 0.0625 5.875 C0.05347656 4.77929688 0.04445313 3.68359375 0.03515625 2.5546875 C0.02355469 1.71164063 0.01195313 0.86859375 0 0 Z " fill="#9E7762" transform="translate(86,40)"/>
<path d="M0 0 C0.33 0.99 0.66 1.98 1 3 C-0.40751221 3.86916887 -1.8264521 4.71985149 -3.25 5.5625 C-4.03890625 6.03816406 -4.8278125 6.51382813 -5.640625 7.00390625 C-8 8 -8 8 -12 7 C-8.04 4.69 -4.08 2.38 0 0 Z " fill="#956F36" transform="translate(144,85)"/>
<path d="M0 0 C2.0625 0.4375 2.0625 0.4375 4 1 C4 5 4 5 3 7 C1.35 6.67 -0.3 6.34 -2 6 C-1.125 1.125 -1.125 1.125 0 0 Z " fill="#DBC1B3" transform="translate(92,62)"/>
<path d="M0 0 C0.33 0 0.66 0 1 0 C1 2.64 1 5.28 1 8 C1.66 8 2.32 8 3 8 C3 9.32 3 10.64 3 12 C1.68 12 0.36 12 -1 12 C-1.02698189 10.37509046 -1.04638757 8.75005367 -1.0625 7.125 C-1.07410156 6.22007813 -1.08570312 5.31515625 -1.09765625 4.3828125 C-1 2 -1 2 0 0 Z " fill="#E5D1C6" transform="translate(119,46)"/>
<path d="M0 0 C1 2 1 2 0.9375 4.3125 C-0.42084798 8.20643086 -2.7191576 9.55681949 -6 12 C-6.33 11.34 -6.66 10.68 -7 10 C-3.535 5.05 -3.535 5.05 0 0 Z " fill="#D3B7AC" transform="translate(64,27)"/>
<path d="M0 0 C1.65 0 3.3 0 5 0 C4.04578192 1.14926266 3.08647955 2.29430541 2.125 3.4375 C1.59132812 4.07558594 1.05765625 4.71367188 0.5078125 5.37109375 C-1 7 -1 7 -3 8 C-3.66 7.67 -4.32 7.34 -5 7 C-5 6.34 -5 5.68 -5 5 C-4.360625 4.731875 -3.72125 4.46375 -3.0625 4.1875 C-0.66868314 3.11332248 -0.66868314 3.11332248 0 0 Z " fill="#CBB5A5" transform="translate(143,92)"/>
<path d="M0 0 C0.66 0 1.32 0 2 0 C2 0.66 2 1.32 2 2 C2.66 2 3.32 2 4 2 C3.67 3.32 3.34 4.64 3 6 C2.34 6 1.68 6 1 6 C1 6.99 1 7.98 1 9 C0.34 9 -0.32 9 -1 9 C-1.80967438 6.08517222 -2.21845993 4.53886783 -1.0625 1.6875 C-0.711875 1.130625 -0.36125 0.57375 0 0 Z " fill="#AE6E55" transform="translate(57,42)"/>
<path d="M0 0 C0.99 0 1.98 0 3 0 C3.125 2.375 3.125 2.375 3 5 C2.34 5.66 1.68 6.32 1 7 C0.01 7 -0.98 7 -2 7 C-1.125 1.125 -1.125 1.125 0 0 Z " fill="#EED580" transform="translate(108,73)"/>
<path d="M0 0 C0.91007812 0.00902344 1.82015625 0.01804688 2.7578125 0.02734375 C3.45648438 0.03894531 4.15515625 0.05054688 4.875 0.0625 C5.205 1.3825 5.535 2.7025 5.875 4.0625 C5.215 3.7325 4.555 3.4025 3.875 3.0625 C1.95999697 2.90351146 1.95999697 2.90351146 -0.125 2.9375 C-0.82625 2.93492188 -1.5275 2.93234375 -2.25 2.9296875 C-4.21653775 2.94872764 -4.21653775 2.94872764 -6.125 4.0625 C-6.455 3.0725 -6.785 2.0825 -7.125 1.0625 C-4.60024538 -0.19987731 -2.81299534 -0.03606404 0 0 Z " fill="#AF846E" transform="translate(81.125,38.9375)"/>
<path d="M0 0 C0 0.66 0 1.32 0 2 C-0.66 2 -1.32 2 -2 2 C-2.0825 2.5775 -2.165 3.155 -2.25 3.75 C-3.21797787 6.6539336 -4.68694284 8.03740604 -7 10 C-7.66 10 -8.32 10 -9 10 C-7.6834994 5.81113445 -4.97532335 0 0 0 Z " fill="#926C3D" transform="translate(131,78)"/>
<path d="M0 0 C0.33 0.66 0.66 1.32 1 2 C0.29296875 3.91015625 0.29296875 3.91015625 -0.8125 6.0625 C-1.16957031 6.77535156 -1.52664062 7.48820312 -1.89453125 8.22265625 C-3 10 -3 10 -5 11 C-4.67 8.69 -4.34 6.38 -4 4 C-3.01 3.67 -2.02 3.34 -1 3 C-0.67 2.01 -0.34 1.02 0 0 Z " fill="#DDBFB1" transform="translate(159,76)"/>
<path d="M0 0 C0 0.66 0 1.32 0 2 C-0.99 2.495 -0.99 2.495 -2 3 C-2 3.99 -2 4.98 -2 6 C-3.65 6.33 -5.3 6.66 -7 7 C-6.67 5.68 -6.34 4.36 -6 3 C-5.34 3 -4.68 3 -4 3 C-4 2.34 -4 1.68 -4 1 C-2 0 -2 0 0 0 Z " fill="#EAD077" transform="translate(138,85)"/>
<path d="M0 0 C2 3.75 2 3.75 2 6 C1.34 6 0.68 6 0 6 C0.33 10.62 0.66 15.24 1 20 C0.34 19.67 -0.32 19.34 -1 19 C-1.02705308 16.58325776 -1.04686438 14.1668206 -1.0625 11.75 C-1.07087891 11.06808594 -1.07925781 10.38617188 -1.08789062 9.68359375 C-1.10428392 6.30657446 -1.05628768 3.22708361 0 0 Z " fill="#BA8166" transform="translate(50,52)"/>
<path d="M0 0 C5.0302076 0.52537724 10.01885239 1.10594786 15 2 C15 2.33 15 2.66 15 3 C13.06318839 3.08107583 11.1254066 3.13922475 9.1875 3.1875 C8.10855469 3.22230469 7.02960938 3.25710937 5.91796875 3.29296875 C3 3 3 3 1.11328125 1.48828125 C0.56220703 0.75158203 0.56220703 0.75158203 0 0 Z " fill="#E4F88A" transform="translate(81,108)"/>
<path d="M0 0 C1.32 0 2.64 0 4 0 C4.33 2.64 4.66 5.28 5 8 C3.68 7.67 2.36 7.34 1 7 C0.67 4.69 0.34 2.38 0 0 Z " fill="#C5B17F" transform="translate(68,94)"/>
<path d="M0 0 C1.32 0.33 2.64 0.66 4 1 C4 2.65 4 4.3 4 6 C2.68 6 1.36 6 0 6 C0 4.02 0 2.04 0 0 Z " fill="#F1D47F" transform="translate(88,72)"/>
<path d="M0 0 C0.33 0 0.66 0 1 0 C1 2.31 1 4.62 1 7 C-1.31 7 -3.62 7 -6 7 C-6 6.34 -6 5.68 -6 5 C-5.38125 4.9175 -4.7625 4.835 -4.125 4.75 C-1.81562433 4.18741541 -1.81562433 4.18741541 -0.75 1.9375 C-0.5025 1.298125 -0.255 0.65875 0 0 Z " fill="#9F705F" transform="translate(79,66)"/>
<path d="M0 0 C0.99 0.99 1.98 1.98 3 3 C2.34 5.31 1.68 7.62 1 10 C0.34 10 -0.32 10 -1 10 C-0.67 6.7 -0.34 3.4 0 0 Z " fill="#AD6C50" transform="translate(102,51)"/>
<path d="M0 0 C0.66 0 1.32 0 2 0 C1.56179109 4.55737263 1.14958831 7.57653445 -2 11 C-2.99 10.67 -3.98 10.34 -5 10 C-4.360625 9.278125 -3.72125 8.55625 -3.0625 7.8125 C-1.01326465 5.01808816 -0.38667054 3.38336726 0 0 Z " fill="#81ABA6" transform="translate(125,97)"/>
<path d="M0 0 C0 1.32 0 2.64 0 4 C0.66 4 1.32 4 2 4 C2.33 5.98 2.66 7.96 3 10 C2.401875 9.21625 1.80375 8.4325 1.1875 7.625 C-0.91085249 4.85425677 -0.91085249 4.85425677 -4 3 C-4 2.34 -4 1.68 -4 1 C-2 0 -2 0 0 0 Z " fill="#A78044" transform="translate(122,86)"/>
<path d="M0 0 C-0.99 0.495 -0.99 0.495 -2 1 C-2.33 1.66 -2.66 2.32 -3 3 C-3.33 2.67 -3.66 2.34 -4 2 C-4.33 2.66 -4.66 3.32 -5 4 C-6.65 3.67 -8.3 3.34 -10 3 C-6.84439813 -0.15560187 -4.30999015 -1.43666338 0 0 Z " fill="#A87557" transform="translate(91,68)"/>
<path d="M0 0 C0.99 0 1.98 0 3 0 C3 0.99 3 1.98 3 3 C2.34 3 1.68 3 1 3 C0.67 5.31 0.34 7.62 0 10 C-0.33 10 -0.66 10 -1 10 C-1.02689216 8.52093108 -1.04634621 7.04172517 -1.0625 5.5625 C-1.07410156 4.73878906 -1.08570312 3.91507812 -1.09765625 3.06640625 C-1 1 -1 1 0 0 Z " fill="#A67C63" transform="translate(70,61)"/>
<path d="M0 0 C0.66 0 1.32 0 2 0 C2 0.66 2 1.32 2 2 C-1.96 3.98 -1.96 3.98 -6 6 C-6.99 5.01 -7.98 4.02 -9 3 C-8.43410156 2.86722656 -7.86820312 2.73445313 -7.28515625 2.59765625 C-6.18494141 2.33275391 -6.18494141 2.33275391 -5.0625 2.0625 C-4.33160156 1.88847656 -3.60070312 1.71445312 -2.84765625 1.53515625 C-1.00030102 1.16112431 -1.00030102 1.16112431 0 0 Z " fill="#8D6050" transform="translate(85,54)"/>
<path d="M0 0 C0 4.32991847 -2.11505369 5.91377837 -5 9 C-5.99 9.33 -6.98 9.66 -8 10 C-7.44449305 6.40094092 -6.25112752 5.00090201 -3.4375 2.75 C-2.79683594 2.22921875 -2.15617187 1.7084375 -1.49609375 1.171875 C-1.00238281 0.78515625 -0.50867187 0.3984375 0 0 Z " fill="#E8CBC0" transform="translate(56,39)"/>
<path d="M0 0 C2.475 0.495 2.475 0.495 5 1 C5 1.99 5 2.98 5 4 C5.66 4 6.32 4 7 4 C7 3.34 7 2.68 7 2 C7.66 2.33 8.32 2.66 9 3 C7.515 5.475 7.515 5.475 6 8 C3.64046906 5.64046906 3.50858587 4.22104383 3 1 C2.01 0.67 1.02 0.34 0 0 Z " fill="#A47E6B" transform="translate(105,40)"/>
<path d="M0 0 C0.99 0.66 1.98 1.32 3 2 C2.01 3.485 2.01 3.485 1 5 C0.01 5 -0.98 5 -2 5 C-2.33 6.32 -2.66 7.64 -3 9 C-3.33 8.34 -3.66 7.68 -4 7 C-3.22265625 5.2734375 -3.22265625 5.2734375 -2.0625 3.375 C-1.381875 2.26125 -0.70125 1.1475 0 0 Z " fill="#CAA186" transform="translate(145,87)"/>
<path d="M0 0 C0.33 0 0.66 0 1 0 C1.1875 2.875 1.1875 2.875 1 6 C-2 8 -2 8 -4.1875 7.625 C-4.785625 7.41875 -5.38375 7.2125 -6 7 C-5.195625 6.21625 -4.39125 5.4325 -3.5625 4.625 C-1.01309583 2.28017144 -1.01309583 2.28017144 0 0 Z " fill="#966636" transform="translate(112,74)"/>
<path d="M0 0 C0.66 0 1.32 0 2 0 C2.33 1.98 2.66 3.96 3 6 C1.68 6.33 0.36 6.66 -1 7 C-0.67 4.69 -0.34 2.38 0 0 Z " fill="#DEC6B8" transform="translate(71,64)"/>
<path d="M0 0 C0 1.32 0 2.64 0 4 C-2.31 4 -4.62 4 -7 4 C-3.375 0 -3.375 0 0 0 Z " fill="#976954" transform="translate(140,60)"/>
<path d="M0 0 C2.56269497 1.04109483 4.02610343 2.02610343 6 4 C3.36 4 0.72 4 -2 4 C-2 3.01 -2 2.02 -2 1 C-1.34 0.67 -0.68 0.34 0 0 Z " fill="#B4705C" transform="translate(130,61)"/>
<path d="M0 0 C0 0.66 0 1.32 0 2 C-3.4019487 4.09350689 -6.05272412 4.17942163 -10 4 C-6.74659338 1.32755885 -4.23938937 0 0 0 Z " fill="#8BCCA2" transform="translate(120,108)"/>
<path d="M0 0 C1.32 0 2.64 0 4 0 C3.34 1.65 2.68 3.3 2 5 C1.01 5 0.02 5 -1 5 C-0.67 3.35 -0.34 1.7 0 0 Z " fill="#F4D87F" transform="translate(121,81)"/>
<path d="M0 0 C3.26954202 0.56371414 4.82575883 1.49962266 7 4 C5.68 3.67 4.36 3.34 3 3 C3 3.99 3 4.98 3 6 C2.34 6 1.68 6 1 6 C0.67 4.02 0.34 2.04 0 0 Z " fill="#DEB590" transform="translate(44,80)"/>
<path d="M0 0 C-0.66 1.65 -1.32 3.3 -2 5 C-2.66 5 -3.32 5 -4 5 C-4 3.68 -4 2.36 -4 1 C-4.99 0.67 -5.98 0.34 -7 0 C-3.86650268 -1.04449911 -3.01031744 -0.93423645 0 0 Z " fill="#AC7767" transform="translate(108,69)"/>
<path d="M0 0 C2.3828125 0.0234375 2.3828125 0.0234375 5.125 0.375 C6.03507812 0.48585937 6.94515625 0.59671875 7.8828125 0.7109375 C8.93082031 0.85402344 8.93082031 0.85402344 10 1 C5.61991557 3.58464442 2.88874887 2.81479148 -2 2 C-1.34 1.34 -0.68 0.68 0 0 Z " fill="#AB7F69" transform="translate(95,60)"/>
<path d="M0 0 C0 4.62 0 9.24 0 14 C-0.33 14 -0.66 14 -1 14 C-1 10.7 -1 7.4 -1 4 C-1.66 4 -2.32 4 -3 4 C-3 3.01 -3 2.02 -3 1 C-1 0 -1 0 0 0 Z " fill="#D09D88" transform="translate(49,54)"/>
<path d="M0 0 C2.62113708 0 4.50935112 0.31292445 7 1 C7 1.66 7 2.32 7 3 C4.36 3.33 1.72 3.66 -1 4 C-0.67 2.68 -0.34 1.36 0 0 Z " fill="#FEF8FB" transform="translate(63,55)"/>
<path d="M0 0 C-0.66 0 -1.32 0 -2 0 C-2.33 1.32 -2.66 2.64 -3 4 C-3.33 3.01 -3.66 2.02 -4 1 C-6.31 1.33 -8.62 1.66 -11 2 C-6.98764085 -0.6749061 -4.6342454 -1.48957888 0 0 Z " fill="#75EAE4" transform="translate(116,113)"/>
<path d="M0 0 C3.45925163 1.2491742 6.14693203 2.67527795 9 5 C3.5 5.36666667 3.5 5.36666667 1.125 3.625 C0 2 0 2 0 0 Z " fill="#D2B17D" transform="translate(46,86)"/>
<path d="M0 0 C-0.66 1.32 -1.32 2.64 -2 4 C-4.97 3.505 -4.97 3.505 -8 3 C-6.23110084 -0.53779831 -3.70375662 0 0 0 Z " fill="#F5E775" transform="translate(86,83)"/>
<path d="M0 0 C1.32 0 2.64 0 4 0 C4 0.66 4 1.32 4 2 C3.34 2 2.68 2 2 2 C2 3.65 2 5.3 2 7 C1.34 7 0.68 7 0 7 C-0.38133299 5.0085944 -0.71325582 3.00720923 -1 1 C-0.67 0.67 -0.34 0.34 0 0 Z " fill="#F1DDCD" transform="translate(76,63)"/>
<path d="M0 0 C0.66 0 1.32 0 2 0 C2.1875 2.8125 2.1875 2.8125 2 6 C1.01 6.99 0.02 7.98 -1 9 C-0.67 6.03 -0.34 3.06 0 0 Z " fill="#DDE39A" transform="translate(123,96)"/>
<path d="M0 0 C0.99 0 1.98 0 3 0 C3.66 2.97 4.32 5.94 5 9 C0.57142857 3.85714286 0.57142857 3.85714286 0 0 Z " fill="#CDB2A3" transform="translate(44,88)"/>
<path d="M0 0 C0.33 1.32 0.66 2.64 1 4 C-0.75 4.6875 -0.75 4.6875 -3 5 C-5.25 3.5625 -5.25 3.5625 -7 2 C-6.21625 2.04125 -5.4325 2.0825 -4.625 2.125 C-1.83883881 2.28728734 -1.83883881 2.28728734 0 0 Z " fill="#B98E57" transform="translate(119,83)"/>
<path d="M0 0 C2.5654594 2.5654594 2.54046087 4.47686668 3 8 C1.68 7.34 0.36 6.68 -1 6 C-0.67 5.34 -0.34 4.68 0 4 C-0.33 3.67 -0.66 3.34 -1 3 C-1.33 2.34 -1.66 1.68 -2 1 C-1.34 0.67 -0.68 0.34 0 0 Z " fill="#B98E7E" transform="translate(105,48)"/>
<path d="M0 0 C0.33 1.32 0.66 2.64 1 4 C-3.625 6.125 -3.625 6.125 -7 5 C-6.030625 4.54625 -5.06125 4.0925 -4.0625 3.625 C-0.92920418 2.34213779 -0.92920418 2.34213779 0 0 Z " fill="#A17732" transform="translate(92,76)"/>
<path d="M0 0 C1.98 0 3.96 0 6 0 C6 1.32 6 2.64 6 4 C5.34 4 4.68 4 4 4 C4 3.34 4 2.68 4 2 C2.35 2 0.7 2 -1 2 C-0.67 1.34 -0.34 0.68 0 0 Z " fill="#EFE4D7" transform="translate(123,67)"/>
<path d="M0 0 C1.32 0.66 2.64 1.32 4 2 C3.01 3.485 3.01 3.485 2 5 C1.01 5 0.02 5 -1 5 C-0.67 3.35 -0.34 1.7 0 0 Z " fill="#F7E6D8" transform="translate(114,64)"/>
<path d="M0 0 C-0.6875 1.9375 -0.6875 1.9375 -2 4 C-4.625 4.75 -4.625 4.75 -7 5 C-6.67 3.68 -6.34 2.36 -6 1 C-3.92446352 0.4465236 -2.15634036 0 0 0 Z " fill="#9B6952" transform="translate(143,48)"/>
<path d="M0 0 C1.98 0.495 1.98 0.495 4 1 C4 2.32 4 3.64 4 5 C3.34 5 2.68 5 2 5 C2 4.01 2 3.02 2 2 C1.34 2 0.68 2 0 2 C-0.33 2.99 -0.66 3.98 -1 5 C-0.67 3.35 -0.34 1.7 0 0 Z " fill="#E9D7CE" transform="translate(127,44)"/>
<path d="M0 0 C1.4540625 0.0309375 1.4540625 0.0309375 2.9375 0.0625 C2.6075 0.7225 2.2775 1.3825 1.9375 2.0625 C0.6175 2.0625 -0.7025 2.0625 -2.0625 2.0625 C-2.0625 4.0425 -2.0625 6.0225 -2.0625 8.0625 C-2.3925 8.0625 -2.7225 8.0625 -3.0625 8.0625 C-3.44313221 5.7364143 -3.77519945 3.40194736 -4.0625 1.0625 C-3.0625 0.0625 -3.0625 0.0625 0 0 Z " fill="#C29076" transform="translate(64.0625,37.9375)"/>
<path d="M0 0 C-2.95183101 2.95183101 -5.95511947 3.08663988 -10 4 C-10 3.34 -10 2.68 -10 2 C-6.3558226 -0.4294516 -4.28758728 -0.16179575 0 0 Z " fill="#CD957C" transform="translate(78,26)"/>
<path d="" fill="#FFFFFD" transform="translate(0,0)"/>
</svg>
